<svg version="1.1" viewBox="0.0 0.0 1047.0 419.0" fill="none" stroke="none" stroke-linecap="square" stroke-miterlimit="10" width="1047" height="419" xmlns:xlink="http://www.w3.org/1999/xlink" xmlns="http://www.w3.org/2000/svg"><path fill="#ffffff" d="M0 0L1047.0 0L1047.0 419.0L0 419.0L0 0Z" fill-rule="nonzero"/><path stroke="#cccccc" stroke-width="1.0" stroke-linecap="butt" d="M60.5 392.5L1026.5 392.5" fill-rule="nonzero"/><path stroke="#cccccc" stroke-width="1.0" stroke-linecap="butt" d="M60.5 325.5L1026.5 325.5" fill-rule="nonzero"/><path stroke="#cccccc" stroke-width="1.0" stroke-linecap="butt" d="M60.5 259.5L1026.5 259.5" fill-rule="nonzero"/><path stroke="#cccccc" stroke-width="1.0" stroke-linecap="butt" d="M60.5 193.5L1026.5 193.5" fill-rule="nonzero"/><path stroke="#333333" stroke-width="1.0" stroke-linecap="butt" d="M60.5 127.5L1026.5 127.5" fill-rule="nonzero"/><path stroke="#cccccc" stroke-width="1.0" stroke-linecap="butt" d="M60.5 60.5L1026.5 60.5" fill-rule="nonzero"/><clipPath id="id_0"><path d="M60.95 60.916668L1026.05 60.916668L1026.05 392.05L60.95 392.05L60.95 60.916668Z" clip-rule="nonzero"/></clipPath><path stroke="#4472c4" stroke-width="2.0" stroke-linecap="butt" clip-path="url(#id_0)" d="M221.8 127.14033L543.5 391.00912L865.2 103.29038" fill-rule="nonzero"/><path fill="#000000" fill-opacity="0.0" clip-path="url(#id_0)" d="M224.8 127.14033C224.8 128.79718 223.45685 130.14034 221.8 130.14034C220.14314 130.14034 218.8 128.79718 218.8 127.14033C218.8 125.483475 220.14314 124.14033 221.8 124.14033C223.45685 124.14033 224.8 125.483475 224.8 127.14033Z" fill-rule="nonzero"/><path fill="#000000" fill-opacity="0.0" clip-path="url(#id_0)" d="M546.5 391.00912C546.5 392.666 545.15686 394.00912 543.5 394.00912C541.84314 394.00912 540.5 392.666 540.5 391.00912C540.5 389.35226 541.84314 388.00912 543.5 388.00912C545.15686 388.00912 546.5 389.35226 546.5 391.00912Z" fill-rule="nonzero"/><path fill="#000000" fill-opacity="0.0" clip-path="url(#id_0)" d="M868.2 103.29038C868.2 104.94724 866.8569 106.29038 865.2 106.29038C863.54315 106.29038 862.2 104.94724 862.2 103.29038C862.2 101.63353 863.54315 100.29038 865.2 100.29038C866.8569 100.29038 868.2 101.63353 868.2 103.29038Z" fill-rule="nonzero"/><path fill="#000000" d="M24.215626 392.09686Q24.215626 392.3156 24.16875 392.40936Q24.121876 392.4875 24.0125 392.4875L21.559376 392.4875Q21.465626 392.4875 21.403126 392.40936Q21.35625 392.3156 21.35625 392.09686Q21.35625 391.8625 21.403126 391.78436Q21.465626 391.6906 21.559376 391.6906L24.0125 391.6906Q24.059376 391.6906 24.090626 391.70624Q24.1375 391.72186 24.153126 391.78436Q24.184376 391.83124 24.2 391.90936Q24.215626 391.97186 24.215626 392.09686ZM30.371876 394.6125Q30.371876 394.72186 30.35625 394.8Q30.340626 394.8781 30.309376 394.9406Q30.278126 395.0031 30.23125 395.03436Q30.2 395.05 30.1375 395.05L25.95 395.05Q25.871876 395.05 25.809376 395.03436Q25.746876 395.0031 25.7 394.95624Q25.653126 394.90936 25.6375 394.83124Q25.621876 394.7375 25.621876 394.6125Q25.621876 394.4875 25.621876 394.40936Q25.6375 394.3156 25.66875 394.2531Q25.7 394.175 25.73125 394.1125Q25.778126 394.05 25.85625 393.97186L27.325 392.40936Q27.840626 391.8781 28.1375 391.45624Q28.45 391.01874 28.60625 390.675Q28.778126 390.3156 28.825 390.03436Q28.8875 389.7375 28.8875 389.4875Q28.8875 389.2375 28.809376 389.01874Q28.73125 388.78436 28.575 388.6125Q28.41875 388.4406 28.184376 388.34686Q27.95 388.2531 27.6375 388.2531Q27.278126 388.2531 26.996876 388.34686Q26.715626 388.4406 26.496876 388.5656Q26.29375 388.675 26.1375 388.78436Q25.996876 388.8781 25.934376 388.8781Q25.8875 388.8781 25.85625 388.8625Q25.825 388.83124 25.79375 388.78436Q25.778126 388.72186 25.7625 388.64374Q25.7625 388.55 25.7625 388.425Q25.7625 388.34686 25.7625 388.28436Q25.778126 388.20624 25.778126 388.15936Q25.79375 388.1125 25.809376 388.08124Q25.840626 388.03436 25.903126 387.97186Q25.98125 387.90936 26.153126 387.8156Q26.340626 387.70624 26.590626 387.6125Q26.85625 387.5031 27.16875 387.4406Q27.48125 387.3625 27.825 387.3625Q28.371876 387.3625 28.778126 387.51874Q29.2 387.65936 29.465626 387.9406Q29.746876 388.20624 29.871876 388.5656Q30.0125 388.925 30.0125 389.33124Q30.0125 389.6906 29.95 390.05Q29.8875 390.40936 29.684376 390.83124Q29.48125 391.2531 29.075 391.76874Q28.684376 392.26874 28.04375 392.9406L26.840626 394.1906L30.1375 394.1906Q30.184376 394.1906 30.23125 394.22186Q30.278126 394.2531 30.309376 394.3Q30.340626 394.34686 30.35625 394.425Q30.371876 394.5031 30.371876 394.6125ZM36.621876 391.2375Q36.621876 392.1125 36.48125 392.83124Q36.340626 393.55 36.0125 394.08124Q35.7 394.59686 35.184376 394.8781Q34.66875 395.15936 33.91875 395.15936Q33.2 395.15936 32.7 394.90936Q32.215626 394.64374 31.91875 394.15936Q31.621876 393.65936 31.496876 392.9406Q31.371876 392.20624 31.371876 391.26874Q31.371876 390.40936 31.5125 389.6906Q31.653126 388.95624 31.965626 388.4406Q32.29375 387.925 32.809376 387.64374Q33.325 387.3625 34.075 387.3625Q34.79375 387.3625 35.278126 387.6125Q35.7625 387.8625 36.059376 388.3625Q36.371876 388.8625 36.496876 389.58124Q36.621876 390.3 36.621876 391.2375ZM35.590626 391.3156Q35.590626 390.7375 35.54375 390.3Q35.496876 389.84686 35.41875 389.5031Q35.340626 389.14374 35.215626 388.89374Q35.090626 388.64374 34.91875 388.4875Q34.746876 388.33124 34.5125 388.2531Q34.29375 388.175 34.0125 388.175Q33.5125 388.175 33.2 388.40936Q32.8875 388.64374 32.7 389.0656Q32.528126 389.47186 32.465626 390.01874Q32.403126 390.5656 32.403126 391.20624Q32.403126 392.05 32.48125 392.64374Q32.575 393.2375 32.7625 393.6125Q32.965626 393.9875 33.2625 394.15936Q33.559376 394.33124 33.98125 394.33124Q34.309376 394.33124 34.54375 394.2375Q34.79375 394.1281 34.965626 393.9406Q35.153126 393.7375 35.2625 393.45624Q35.3875 393.175 35.45 392.84686Q35.528126 392.51874 35.559376 392.1281Q35.590626 391.7375 35.590626 391.3156ZM42.621876 391.2375Q42.621876 392.1125 42.48125 392.83124Q42.340626 393.55 42.0125 394.08124Q41.7 394.59686 41.184376 394.8781Q40.66875 395.15936 39.91875 395.15936Q39.2 395.15936 38.7 394.90936Q38.215626 394.64374 37.91875 394.15936Q37.621876 393.65936 37.496876 392.9406Q37.371876 392.20624 37.371876 391.26874Q37.371876 390.40936 37.5125 389.6906Q37.653126 388.95624 37.965626 388.4406Q38.29375 387.925 38.809376 387.64374Q39.325 387.3625 40.075 387.3625Q40.79375 387.3625 41.278126 387.6125Q41.7625 387.8625 42.059376 388.3625Q42.371876 388.8625 42.496876 389.58124Q42.621876 390.3 42.621876 391.2375ZM41.590626 391.3156Q41.590626 390.7375 41.54375 390.3Q41.496876 389.84686 41.41875 389.5031Q41.340626 389.14374 41.215626 388.89374Q41.090626 388.64374 40.91875 388.4875Q40.746876 388.33124 40.5125 388.2531Q40.29375 388.175 40.0125 388.175Q39.5125 388.175 39.2 388.40936Q38.8875 388.64374 38.7 389.0656Q38.528126 389.47186 38.465626 390.01874Q38.403126 390.5656 38.403126 391.20624Q38.403126 392.05 38.48125 392.64374Q38.575 393.2375 38.7625 393.6125Q38.965626 393.9875 39.2625 394.15936Q39.559376 394.33124 39.98125 394.33124Q40.309376 394.33124 40.54375 394.2375Q40.79375 394.1281 40.965626 393.9406Q41.153126 393.7375 41.2625 393.45624Q41.3875 393.175 41.45 392.84686Q41.528126 392.51874 41.559376 392.1281Q41.590626 391.7375 41.590626 391.3156ZM48.621876 391.2375Q48.621876 392.1125 48.48125 392.83124Q48.340626 393.55 48.0125 394.08124Q47.7 394.59686 47.184376 394.8781Q46.66875 395.15936 45.91875 395.15936Q45.2 395.15936 44.7 394.90936Q44.215626 394.64374 43.91875 394.15936Q43.621876 393.65936 43.496876 392.9406Q43.371876 392.20624 43.371876 391.26874Q43.371876 390.40936 43.5125 389.6906Q43.653126 388.95624 43.965626 388.4406Q44.29375 387.925 44.809376 387.64374Q45.325 387.3625 46.075 387.3625Q46.79375 387.3625 47.278126 387.6125Q47.7625 387.8625 48.059376 388.3625Q48.371876 388.8625 48.496876 389.58124Q48.621876 390.3 48.621876 391.2375ZM47.590626 391.3156Q47.590626 390.7375 47.54375 390.3Q47.496876 389.84686 47.41875 389.5031Q47.340626 389.14374 47.215626 388.89374Q47.090626 388.64374 46.91875 388.4875Q46.746876 388.33124 46.5125 388.2531Q46.29375 388.175 46.0125 388.175Q45.5125 388.175 45.2 388.40936Q44.8875 388.64374 44.7 389.0656Q44.528126 389.47186 44.465626 390.01874Q44.403126 390.5656 44.403126 391.20624Q44.403126 392.05 44.48125 392.64374Q44.575 393.2375 44.7625 393.6125Q44.965626 393.9875 45.2625 394.15936Q45.559376 394.33124 45.98125 394.33124Q46.309376 394.33124 46.54375 394.2375Q46.79375 394.1281 46.965626 393.9406Q47.153126 393.7375 47.2625 393.45624Q47.3875 393.175 47.45 392.84686Q47.528126 392.51874 47.559376 392.1281Q47.590626 391.7375 47.590626 391.3156ZM54.621876 391.2375Q54.621876 392.1125 54.48125 392.83124Q54.340626 393.55 54.0125 394.08124Q53.7 394.59686 53.184376 394.8781Q52.66875 395.15936 51.91875 395.15936Q51.2 395.15936 50.7 394.90936Q50.215626 394.64374 49.91875 394.15936Q49.621876 393.65936 49.496876 392.9406Q49.371876 392.20624 49.371876 391.26874Q49.371876 390.40936 49.5125 389.6906Q49.653126 388.95624 49.965626 388.4406Q50.29375 387.925 50.809376 387.64374Q51.325 387.3625 52.075 387.3625Q52.79375 387.3625 53.278126 387.6125Q53.7625 387.8625 54.059376 388.3625Q54.371876 388.8625 54.496876 389.58124Q54.621876 390.3 54.621876 391.2375ZM53.590626 391.3156Q53.590626 390.7375 53.54375 390.3Q53.496876 389.84686 53.41875 389.5031Q53.340626 389.14374 53.215626 388.89374Q53.090626 388.64374 52.91875 388.4875Q52.746876 388.33124 52.5125 388.2531Q52.29375 388.175 52.0125 388.175Q51.5125 388.175 51.2 388.40936Q50.8875 388.64374 50.7 389.0656Q50.528126 389.47186 50.465626 390.01874Q50.403126 390.5656 50.403126 391.20624Q50.403126 392.05 50.48125 392.64374Q50.575 393.2375 50.7625 393.6125Q50.965626 393.9875 51.2625 394.15936Q51.559376 394.33124 51.98125 394.33124Q52.309376 394.33124 52.54375 394.2375Q52.79375 394.1281 52.965626 393.9406Q53.153126 393.7375 53.2625 393.45624Q53.3875 393.175 53.45 392.84686Q53.528126 392.51874 53.559376 392.1281Q53.590626 391.7375 53.590626 391.3156Z" fill-rule="nonzero"/><path fill="#000000" d="M24.215626 325.8702Q24.215626 326.08896 24.16875 326.1827Q24.121876 326.26083 24.0125 326.26083L21.559376 326.26083Q21.465626 326.26083 21.403126 326.1827Q21.35625 326.08896 21.35625 325.8702Q21.35625 325.63583 21.403126 325.5577Q21.465626 325.46396 21.559376 325.46396L24.0125 325.46396Q24.059376 325.46396 24.090626 325.47958Q24.1375 325.4952 24.153126 325.5577Q24.184376 325.60458 24.2 325.6827Q24.215626 325.7452 24.215626 325.8702ZM30.3875 328.41708Q30.3875 328.54208 30.35625 328.6202Q30.340626 328.6827 30.309376 328.72958Q30.29375 328.77646 30.246876 328.8077Q30.215626 328.82333 30.16875 328.82333L26.215626 328.82333Q26.16875 328.82333 26.1375 328.8077Q26.10625 328.77646 26.059376 328.72958Q26.028126 328.6827 26.0125 328.6202Q25.996876 328.54208 25.996876 328.41708Q25.996876 328.32333 26.0125 328.2452Q26.028126 328.16708 26.059376 328.1202Q26.090626 328.07333 26.121876 328.04208Q26.16875 328.01083 26.215626 328.01083L27.79375 328.01083L27.79375 322.2452L26.325 323.1202Q26.215626 323.1827 26.1375 323.19833Q26.075 323.19833 26.028126 323.16708Q25.996876 323.1202 25.98125 323.04208Q25.965626 322.94833 25.965626 322.82333Q25.965626 322.71396 25.965626 322.65146Q25.98125 322.57333 25.996876 322.52646Q26.028126 322.47958 26.059376 322.44833Q26.090626 322.41708 26.1375 322.3702L27.8875 321.26083Q27.903126 321.2452 27.934376 321.22958Q27.98125 321.21396 28.028126 321.21396Q28.090626 321.19833 28.153126 321.19833Q28.23125 321.1827 28.325 321.1827Q28.465626 321.1827 28.559376 321.19833Q28.653126 321.21396 28.7 321.22958Q28.7625 321.2452 28.778126 321.29208Q28.79375 321.32333 28.79375 321.35458L28.79375 328.01083L30.16875 328.01083Q30.215626 328.01083 30.246876 328.04208Q30.29375 328.07333 30.325 328.1202Q30.35625 328.16708 30.371876 328.2452Q30.3875 328.32333 30.3875 328.41708ZM36.325 326.38583Q36.325 326.9952 36.121876 327.47958Q35.91875 327.94833 35.54375 328.27646Q35.16875 328.58896 34.653126 328.76083Q34.1375 328.9327 33.496876 328.9327Q33.153126 328.9327 32.825 328.88583Q32.5125 328.83896 32.2625 328.76083Q32.028126 328.6827 31.85625 328.6202Q31.7 328.54208 31.653126 328.51083Q31.621876 328.46396 31.60625 328.4327Q31.590626 328.40146 31.575 328.35458Q31.559376 328.29208 31.54375 328.21396Q31.54375 328.13583 31.54375 328.04208Q31.54375 327.9327 31.54375 327.85458Q31.559376 327.77646 31.575 327.72958Q31.60625 327.6827 31.6375 327.66708Q31.66875 327.63583 31.715626 327.63583Q31.778126 327.63583 31.8875 327.71396Q32.0125 327.77646 32.215626 327.8702Q32.434376 327.94833 32.73125 328.02646Q33.04375 328.10458 33.465626 328.10458Q33.85625 328.10458 34.184376 328.01083Q34.5125 327.91708 34.746876 327.71396Q34.996876 327.51083 35.121876 327.21396Q35.2625 326.91708 35.2625 326.47958Q35.2625 326.1202 35.1375 325.83896Q35.028126 325.5577 34.79375 325.3702Q34.559376 325.1827 34.2 325.10458Q33.840626 325.01083 33.325 325.01083Q32.965626 325.01083 32.7 325.04208Q32.45 325.07333 32.23125 325.07333Q32.075 325.07333 31.996876 325.01083Q31.934376 324.9327 31.934376 324.71396L31.934376 321.6202Q31.934376 321.4327 32.0125 321.33896Q32.10625 321.2452 32.278126 321.2452L35.6375 321.2452Q35.684376 321.2452 35.73125 321.27646Q35.778126 321.29208 35.79375 321.35458Q35.825 321.40146 35.840626 321.47958Q35.85625 321.5577 35.85625 321.66708Q35.85625 321.88583 35.79375 322.01083Q35.746876 322.1202 35.6375 322.1202L32.809376 322.1202L32.809376 324.2452Q33.0125 324.21396 33.215626 324.21396Q33.434376 324.19833 33.715626 324.19833Q34.371876 324.19833 34.85625 324.35458Q35.340626 324.51083 35.66875 324.8077Q35.996876 325.08896 36.153126 325.4952Q36.325 325.88583 36.325 326.38583ZM42.621876 325.01083Q42.621876 325.88583 42.48125 326.60458Q42.340626 327.32333 42.0125 327.85458Q41.7 328.3702 41.184376 328.65146Q40.66875 328.9327 39.91875 328.9327Q39.2 328.9327 38.7 328.6827Q38.215626 328.41708 37.91875 327.9327Q37.621876 327.4327 37.496876 326.71396Q37.371876 325.97958 37.371876 325.04208Q37.371876 324.1827 37.5125 323.46396Q37.653126 322.72958 37.965626 322.21396Q38.29375 321.69833 38.809376 321.41708Q39.325 321.13583 40.075 321.13583Q40.79375 321.13583 41.278126 321.38583Q41.7625 321.63583 42.059376 322.13583Q42.371876 322.63583 42.496876 323.35458Q42.621876 324.07333 42.621876 325.01083ZM41.590626 325.08896Q41.590626 324.51083 41.54375 324.07333Q41.496876 323.6202 41.41875 323.27646Q41.340626 322.91708 41.215626 322.66708Q41.090626 322.41708 40.91875 322.26083Q40.746876 322.10458 40.5125 322.02646Q40.29375 321.94833 40.0125 321.94833Q39.5125 321.94833 39.2 322.1827Q38.8875 322.41708 38.7 322.83896Q38.528126 323.2452 38.465626 323.79208Q38.403126 324.33896 38.403126 324.97958Q38.403126 325.82333 38.48125 326.41708Q38.575 327.01083 38.7625 327.38583Q38.965626 327.76083 39.2625 327.9327Q39.559376 328.10458 39.98125 328.10458Q40.309376 328.10458 40.54375 328.01083Q40.79375 327.90146 40.965626 327.71396Q41.153126 327.51083 41.2625 327.22958Q41.3875 326.94833 41.45 326.6202Q41.528126 326.29208 41.559376 325.90146Q41.590626 325.51083 41.590626 325.08896ZM48.621876 325.01083Q48.621876 325.88583 48.48125 326.60458Q48.340626 327.32333 48.0125 327.85458Q47.7 328.3702 47.184376 328.65146Q46.66875 328.9327 45.91875 328.9327Q45.2 328.9327 44.7 328.6827Q44.215626 328.41708 43.91875 327.9327Q43.621876 327.4327 43.496876 326.71396Q43.371876 325.97958 43.371876 325.04208Q43.371876 324.1827 43.5125 323.46396Q43.653126 322.72958 43.965626 322.21396Q44.29375 321.69833 44.809376 321.41708Q45.325 321.13583 46.075 321.13583Q46.79375 321.13583 47.278126 321.38583Q47.7625 321.63583 48.059376 322.13583Q48.371876 322.63583 48.496876 323.35458Q48.621876 324.07333 48.621876 325.01083ZM47.590626 325.08896Q47.590626 324.51083 47.54375 324.07333Q47.496876 323.6202 47.41875 323.27646Q47.340626 322.91708 47.215626 322.66708Q47.090626 322.41708 46.91875 322.26083Q46.746876 322.10458 46.5125 322.02646Q46.29375 321.94833 46.0125 321.94833Q45.5125 321.94833 45.2 322.1827Q44.8875 322.41708 44.7 322.83896Q44.528126 323.2452 44.465626 323.79208Q44.403126 324.33896 44.403126 324.97958Q44.403126 325.82333 44.48125 326.41708Q44.575 327.01083 44.7625 327.38583Q44.965626 327.76083 45.2625 327.9327Q45.559376 328.10458 45.98125 328.10458Q46.309376 328.10458 46.54375 328.01083Q46.79375 327.90146 46.965626 327.71396Q47.153126 327.51083 47.2625 327.22958Q47.3875 326.94833 47.45 326.6202Q47.528126 326.29208 47.559376 325.90146Q47.590626 325.51083 47.590626 325.08896ZM54.621876 325.01083Q54.621876 325.88583 54.48125 326.60458Q54.340626 327.32333 54.0125 327.85458Q53.7 328.3702 53.184376 328.65146Q52.66875 328.9327 51.91875 328.9327Q51.2 328.9327 50.7 328.6827Q50.215626 328.41708 49.91875 327.9327Q49.621876 327.4327 49.496876 326.71396Q49.371876 325.97958 49.371876 325.04208Q49.371876 324.1827 49.5125 323.46396Q49.653126 322.72958 49.965626 322.21396Q50.29375 321.69833 50.809376 321.41708Q51.325 321.13583 52.075 321.13583Q52.79375 321.13583 53.278126 321.38583Q53.7625 321.63583 54.059376 322.13583Q54.371876 322.63583 54.496876 323.35458Q54.621876 324.07333 54.621876 325.01083ZM53.590626 325.08896Q53.590626 324.51083 53.54375 324.07333Q53.496876 323.6202 53.41875 323.27646Q53.340626 322.91708 53.215626 322.66708Q53.090626 322.41708 52.91875 322.26083Q52.746876 322.10458 52.5125 322.02646Q52.29375 321.94833 52.0125 321.94833Q51.5125 321.94833 51.2 322.1827Q50.8875 322.41708 50.7 322.83896Q50.528126 323.2452 50.465626 323.79208Q50.403126 324.33896 50.403126 324.97958Q50.403126 325.82333 50.48125 326.41708Q50.575 327.01083 50.7625 327.38583Q50.965626 327.76083 51.2625 327.9327Q51.559376 328.10458 51.98125 328.10458Q52.309376 328.10458 52.54375 328.01083Q52.79375 327.90146 52.965626 327.71396Q53.153126 327.51083 53.2625 327.22958Q53.3875 326.94833 53.45 326.6202Q53.528126 326.29208 53.559376 325.90146Q53.590626 325.51083 53.590626 325.08896Z" fill-rule="nonzero"/><path fill="#000000" d="M24.215626 259.64355Q24.215626 259.8623 24.16875 259.95605Q24.121876 260.03418 24.0125 260.03418L21.559376 260.03418Q21.465626 260.03418 21.403126 259.95605Q21.35625 259.8623 21.35625 259.64355Q21.35625 259.40918 21.403126 259.33105Q21.465626 259.2373 21.559376 259.2373L24.0125 259.2373Q24.059376 259.2373 24.090626 259.25293Q24.1375 259.26855 24.153126 259.33105Q24.184376 259.37793 24.2 259.45605Q24.215626 259.51855 24.215626 259.64355ZM30.3875 262.19043Q30.3875 262.31543 30.35625 262.39355Q30.340626 262.45605 30.309376 262.50293Q30.29375 262.5498 30.246876 262.58105Q30.215626 262.59668 30.16875 262.59668L26.215626 262.59668Q26.16875 262.59668 26.1375 262.58105Q26.10625 262.5498 26.059376 262.50293Q26.028126 262.45605 26.0125 262.39355Q25.996876 262.31543 25.996876 262.19043Q25.996876 262.09668 26.0125 262.01855Q26.028126 261.94043 26.059376 261.89355Q26.090626 261.84668 26.121876 261.81543Q26.16875 261.78418 26.215626 261.78418L27.79375 261.78418L27.79375 256.01855L26.325 256.89355Q26.215626 256.95605 26.1375 256.97168Q26.075 256.97168 26.028126 256.94043Q25.996876 256.89355 25.98125 256.81543Q25.965626 256.72168 25.965626 256.59668Q25.965626 256.4873 25.965626 256.4248Q25.98125 256.34668 25.996876 256.2998Q26.028126 256.25293 26.059376 256.22168Q26.090626 256.19043 26.1375 256.14355L27.8875 255.03418Q27.903126 255.01855 27.934376 255.00293Q27.98125 254.9873 28.028126 254.9873Q28.090626 254.97168 28.153126 254.97168Q28.23125 254.95605 28.325 254.95605Q28.465626 254.95605 28.559376 254.97168Q28.653126 254.9873 28.7 255.00293Q28.7625 255.01855 28.778126 255.06543Q28.79375 255.09668 28.79375 255.12793L28.79375 261.78418L30.16875 261.78418Q30.215626 261.78418 30.246876 261.81543Q30.29375 261.84668 30.325 261.89355Q30.35625 261.94043 30.371876 262.01855Q30.3875 262.09668 30.3875 262.19043ZM36.621876 258.78418Q36.621876 259.65918 36.48125 260.37793Q36.340626 261.09668 36.0125 261.62793Q35.7 262.14355 35.184376 262.4248Q34.66875 262.70605 33.91875 262.70605Q33.2 262.70605 32.7 262.45605Q32.215626 262.19043 31.91875 261.70605Q31.621876 261.20605 31.496876 260.4873Q31.371876 259.75293 31.371876 258.81543Q31.371876 257.95605 31.5125 257.2373Q31.653126 256.50293 31.965626 255.9873Q32.29375 255.47168 32.809376 255.19043Q33.325 254.90918 34.075 254.90918Q34.79375 254.90918 35.278126 255.15918Q35.7625 255.40918 36.059376 255.90918Q36.371876 256.40918 36.496876 257.12793Q36.621876 257.84668 36.621876 258.78418ZM35.590626 258.8623Q35.590626 258.28418 35.54375 257.84668Q35.496876 257.39355 35.41875 257.0498Q35.340626 256.69043 35.215626 256.44043Q35.090626 256.19043 34.91875 256.03418Q34.746876 255.87793 34.5125 255.7998Q34.29375 255.72168 34.0125 255.72168Q33.5125 255.72168 33.2 255.95605Q32.8875 256.19043 32.7 256.6123Q32.528126 257.01855 32.465626 257.56543Q32.403126 258.1123 32.403126 258.75293Q32.403126 259.59668 32.48125 260.19043Q32.575 260.78418 32.7625 261.15918Q32.965626 261.53418 33.2625 261.70605Q33.559376 261.87793 33.98125 261.87793Q34.309376 261.87793 34.54375 261.78418Q34.79375 261.6748 34.965626 261.4873Q35.153126 261.28418 35.2625 261.00293Q35.3875 260.72168 35.45 260.39355Q35.528126 260.06543 35.559376 259.6748Q35.590626 259.28418 35.590626 258.8623ZM42.621876 258.78418Q42.621876 259.65918 42.48125 260.37793Q42.340626 261.09668 42.0125 261.62793Q41.7 262.14355 41.184376 262.4248Q40.66875 262.70605 39.91875 262.70605Q39.2 262.70605 38.7 262.45605Q38.215626 262.19043 37.91875 261.70605Q37.621876 261.20605 37.496876 260.4873Q37.371876 259.75293 37.371876 258.81543Q37.371876 257.95605 37.5125 257.2373Q37.653126 256.50293 37.965626 255.9873Q38.29375 255.47168 38.809376 255.19043Q39.325 254.90918 40.075 254.90918Q40.79375 254.90918 41.278126 255.15918Q41.7625 255.40918 42.059376 255.90918Q42.371876 256.40918 42.496876 257.12793Q42.621876 257.84668 42.621876 258.78418ZM41.590626 258.8623Q41.590626 258.28418 41.54375 257.84668Q41.496876 257.39355 41.41875 257.0498Q41.340626 256.69043 41.215626 256.44043Q41.090626 256.19043 40.91875 256.03418Q40.746876 255.87793 40.5125 255.7998Q40.29375 255.72168 40.0125 255.72168Q39.5125 255.72168 39.2 255.95605Q38.8875 256.19043 38.7 256.6123Q38.528126 257.01855 38.465626 257.56543Q38.403126 258.1123 38.403126 258.75293Q38.403126 259.59668 38.48125 260.19043Q38.575 260.78418 38.7625 261.15918Q38.965626 261.53418 39.2625 261.70605Q39.559376 261.87793 39.98125 261.87793Q40.309376 261.87793 40.54375 261.78418Q40.79375 261.6748 40.965626 261.4873Q41.153126 261.28418 41.2625 261.00293Q41.3875 260.72168 41.45 260.39355Q41.528126 260.06543 41.559376 259.6748Q41.590626 259.28418 41.590626 258.8623ZM48.621876 258.78418Q48.621876 259.65918 48.48125 260.37793Q48.340626 261.09668 48.0125 261.62793Q47.7 262.14355 47.184376 262.4248Q46.66875 262.70605 45.91875 262.70605Q45.2 262.70605 44.7 262.45605Q44.215626 262.19043 43.91875 261.70605Q43.621876 261.20605 43.496876 260.4873Q43.371876 259.75293 43.371876 258.81543Q43.371876 257.95605 43.5125 257.2373Q43.653126 256.50293 43.965626 255.9873Q44.29375 255.47168 44.809376 255.19043Q45.325 254.90918 46.075 254.90918Q46.79375 254.90918 47.278126 255.15918Q47.7625 255.40918 48.059376 255.90918Q48.371876 256.40918 48.496876 257.12793Q48.621876 257.84668 48.621876 258.78418ZM47.590626 258.8623Q47.590626 258.28418 47.54375 257.84668Q47.496876 257.39355 47.41875 257.0498Q47.340626 256.69043 47.215626 256.44043Q47.090626 256.19043 46.91875 256.03418Q46.746876 255.87793 46.5125 255.7998Q46.29375 255.72168 46.0125 255.72168Q45.5125 255.72168 45.2 255.95605Q44.8875 256.19043 44.7 256.6123Q44.528126 257.01855 44.465626 257.56543Q44.403126 258.1123 44.403126 258.75293Q44.403126 259.59668 44.48125 260.19043Q44.575 260.78418 44.7625 261.15918Q44.965626 261.53418 45.2625 261.70605Q45.559376 261.87793 45.98125 261.87793Q46.309376 261.87793 46.54375 261.78418Q46.79375 261.6748 46.965626 261.4873Q47.153126 261.28418 47.2625 261.00293Q47.3875 260.72168 47.45 260.39355Q47.528126 260.06543 47.559376 259.6748Q47.590626 259.28418 47.590626 258.8623ZM54.621876 258.78418Q54.621876 259.65918 54.48125 260.37793Q54.340626 261.09668 54.0125 261.62793Q53.7 262.14355 53.184376 262.4248Q52.66875 262.70605 51.91875 262.70605Q51.2 262.70605 50.7 262.45605Q50.215626 262.19043 49.91875 261.70605Q49.621876 261.20605 49.496876 260.4873Q49.371876 259.75293 49.371876 258.81543Q49.371876 257.95605 49.5125 257.2373Q49.653126 256.50293 49.965626 255.9873Q50.29375 255.47168 50.809376 255.19043Q51.325 254.90918 52.075 254.90918Q52.79375 254.90918 53.278126 255.15918Q53.7625 255.40918 54.059376 255.90918Q54.371876 256.40918 54.496876 257.12793Q54.621876 257.84668 54.621876 258.78418ZM53.590626 258.8623Q53.590626 258.28418 53.54375 257.84668Q53.496876 257.39355 53.41875 257.0498Q53.340626 256.69043 53.215626 256.44043Q53.090626 256.19043 52.91875 256.03418Q52.746876 255.87793 52.5125 255.7998Q52.29375 255.72168 52.0125 255.72168Q51.5125 255.72168 51.2 255.95605Q50.8875 256.19043 50.7 256.6123Q50.528126 257.01855 50.465626 257.56543Q50.403126 258.1123 50.403126 258.75293Q50.403126 259.59668 50.48125 260.19043Q50.575 260.78418 50.7625 261.15918Q50.965626 261.53418 51.2625 261.70605Q51.559376 261.87793 51.98125 261.87793Q52.309376 261.87793 52.54375 261.78418Q52.79375 261.6748 52.965626 261.4873Q53.153126 261.28418 53.2625 261.00293Q53.3875 260.72168 53.45 260.39355Q53.528126 260.06543 53.559376 259.6748Q53.590626 259.28418 53.590626 258.8623Z" fill-rule="nonzero"/><path fill="#000000" d="M30.215626 193.41687Q30.215626 193.63562 30.16875 193.72937Q30.121876 193.8075 30.0125 193.8075L27.559376 193.8075Q27.465626 193.8075 27.403126 193.72937Q27.35625 193.63562 27.35625 193.41687Q27.35625 193.1825 27.403126 193.10437Q27.465626 193.01062 27.559376 193.01062L30.0125 193.01062Q30.059376 193.01062 30.090626 193.02625Q30.1375 193.04187 30.153126 193.10437Q30.184376 193.15125 30.2 193.22937Q30.215626 193.29187 30.215626 193.41687ZM36.325 193.9325Q36.325 194.54187 36.121876 195.02625Q35.91875 195.495 35.54375 195.82312Q35.16875 196.13562 34.653126 196.3075Q34.1375 196.47937 33.496876 196.47937Q33.153126 196.47937 32.825 196.4325Q32.5125 196.38562 32.2625 196.3075Q32.028126 196.22937 31.85625 196.16687Q31.7 196.08875 31.653126 196.0575Q31.621876 196.01062 31.60625 195.97937Q31.590626 195.94812 31.575 195.90125Q31.559376 195.83875 31.54375 195.76062Q31.54375 195.6825 31.54375 195.58875Q31.54375 195.47937 31.54375 195.40125Q31.559376 195.32312 31.575 195.27625Q31.60625 195.22937 31.6375 195.21375Q31.66875 195.1825 31.715626 195.1825Q31.778126 195.1825 31.8875 195.26062Q32.0125 195.32312 32.215626 195.41687Q32.434376 195.495 32.73125 195.57312Q33.04375 195.65125 33.465626 195.65125Q33.85625 195.65125 34.184376 195.5575Q34.5125 195.46375 34.746876 195.26062Q34.996876 195.0575 35.121876 194.76062Q35.2625 194.46375 35.2625 194.02625Q35.2625 193.66687 35.1375 193.38562Q35.028126 193.10437 34.79375 192.91687Q34.559376 192.72937 34.2 192.65125Q33.840626 192.5575 33.325 192.5575Q32.965626 192.5575 32.7 192.58875Q32.45 192.62 32.23125 192.62Q32.075 192.62 31.996876 192.5575Q31.934376 192.47937 31.934376 192.26062L31.934376 189.16687Q31.934376 188.97937 32.0125 188.88562Q32.10625 188.79187 32.278126 188.79187L35.6375 188.79187Q35.684376 188.79187 35.73125 188.82312Q35.778126 188.83875 35.79375 188.90125Q35.825 188.94812 35.840626 189.02625Q35.85625 189.10437 35.85625 189.21375Q35.85625 189.4325 35.79375 189.5575Q35.746876 189.66687 35.6375 189.66687L32.809376 189.66687L32.809376 191.79187Q33.0125 191.76062 33.215626 191.76062Q33.434376 191.745 33.715626 191.745Q34.371876 191.745 34.85625 191.90125Q35.340626 192.0575 35.66875 192.35437Q35.996876 192.63562 36.153126 193.04187Q36.325 193.4325 36.325 193.9325ZM42.621876 192.5575Q42.621876 193.4325 42.48125 194.15125Q42.340626 194.87 42.0125 195.40125Q41.7 195.91687 41.184376 196.19812Q40.66875 196.47937 39.91875 196.47937Q39.2 196.47937 38.7 196.22937Q38.215626 195.96375 37.91875 195.47937Q37.621876 194.97937 37.496876 194.26062Q37.371876 193.52625 37.371876 192.58875Q37.371876 191.72937 37.5125 191.01062Q37.653126 190.27625 37.965626 189.76062Q38.29375 189.245 38.809376 188.96375Q39.325 188.6825 40.075 188.6825Q40.79375 188.6825 41.278126 188.9325Q41.7625 189.1825 42.059376 189.6825Q42.371876 190.1825 42.496876 190.90125Q42.621876 191.62 42.621876 192.5575ZM41.590626 192.63562Q41.590626 192.0575 41.54375 191.62Q41.496876 191.16687 41.41875 190.82312Q41.340626 190.46375 41.215626 190.21375Q41.090626 189.96375 40.91875 189.8075Q40.746876 189.65125 40.5125 189.57312Q40.29375 189.495 40.0125 189.495Q39.5125 189.495 39.2 189.72937Q38.8875 189.96375 38.7 190.38562Q38.528126 190.79187 38.465626 191.33875Q38.403126 191.88562 38.403126 192.52625Q38.403126 193.37 38.48125 193.96375Q38.575 194.5575 38.7625 194.9325Q38.965626 195.3075 39.2625 195.47937Q39.559376 195.65125 39.98125 195.65125Q40.309376 195.65125 40.54375 195.5575Q40.79375 195.44812 40.965626 195.26062Q41.153126 195.0575 41.2625 194.77625Q41.3875 194.495 41.45 194.16687Q41.528126 193.83875 41.559376 193.44812Q41.590626 193.0575 41.590626 192.63562ZM48.621876 192.5575Q48.621876 193.4325 48.48125 194.15125Q48.340626 194.87 48.0125 195.40125Q47.7 195.91687 47.184376 196.19812Q46.66875 196.47937 45.91875 196.47937Q45.2 196.47937 44.7 196.22937Q44.215626 195.96375 43.91875 195.47937Q43.621876 194.97937 43.496876 194.26062Q43.371876 193.52625 43.371876 192.58875Q43.371876 191.72937 43.5125 191.01062Q43.653126 190.27625 43.965626 189.76062Q44.29375 189.245 44.809376 188.96375Q45.325 188.6825 46.075 188.6825Q46.79375 188.6825 47.278126 188.9325Q47.7625 189.1825 48.059376 189.6825Q48.371876 190.1825 48.496876 190.90125Q48.621876 191.62 48.621876 192.5575ZM47.590626 192.63562Q47.590626 192.0575 47.54375 191.62Q47.496876 191.16687 47.41875 190.82312Q47.340626 190.46375 47.215626 190.21375Q47.090626 189.96375 46.91875 189.8075Q46.746876 189.65125 46.5125 189.57312Q46.29375 189.495 46.0125 189.495Q45.5125 189.495 45.2 189.72937Q44.8875 189.96375 44.7 190.38562Q44.528126 190.79187 44.465626 191.33875Q44.403126 191.88562 44.403126 192.52625Q44.403126 193.37 44.48125 193.96375Q44.575 194.5575 44.7625 194.9325Q44.965626 195.3075 45.2625 195.47937Q45.559376 195.65125 45.98125 195.65125Q46.309376 195.65125 46.54375 195.5575Q46.79375 195.44812 46.965626 195.26062Q47.153126 195.0575 47.2625 194.77625Q47.3875 194.495 47.45 194.16687Q47.528126 193.83875 47.559376 193.44812Q47.590626 193.0575 47.590626 192.63562ZM54.621876 192.5575Q54.621876 193.4325 54.48125 194.15125Q54.340626 194.87 54.0125 195.40125Q53.7 195.91687 53.184376 196.19812Q52.66875 196.47937 51.91875 196.47937Q51.2 196.47937 50.7 196.22937Q50.215626 195.96375 49.91875 195.47937Q49.621876 194.97937 49.496876 194.26062Q49.371876 193.52625 49.371876 192.58875Q49.371876 191.72937 49.5125 191.01062Q49.653126 190.27625 49.965626 189.76062Q50.29375 189.245 50.809376 188.96375Q51.325 188.6825 52.075 188.6825Q52.79375 188.6825 53.278126 188.9325Q53.7625 189.1825 54.059376 189.6825Q54.371876 190.1825 54.496876 190.90125Q54.621876 191.62 54.621876 192.5575ZM53.590626 192.63562Q53.590626 192.0575 53.54375 191.62Q53.496876 191.16687 53.41875 190.82312Q53.340626 190.46375 53.215626 190.21375Q53.090626 189.96375 52.91875 189.8075Q52.746876 189.65125 52.5125 189.57312Q52.29375 189.495 52.0125 189.495Q51.5125 189.495 51.2 189.72937Q50.8875 189.96375 50.7 190.38562Q50.528126 190.79187 50.465626 191.33875Q50.403126 191.88562 50.403126 192.52625Q50.403126 193.37 50.48125 193.96375Q50.575 194.5575 50.7625 194.9325Q50.965626 195.3075 51.2625 195.47937Q51.559376 195.65125 51.98125 195.65125Q52.309376 195.65125 52.54375 195.5575Q52.79375 195.44812 52.965626 195.26062Q53.153126 195.0575 53.2625 194.77625Q53.3875 194.495 53.45 194.16687Q53.528126 193.83875 53.559376 193.44812Q53.590626 193.0575 53.590626 192.63562Z" fill-rule="nonzero"/><path fill="#000000" d="M54.621876 126.330826Q54.621876 127.205826 54.48125 127.924576Q54.340626 128.64333 54.0125 129.17458Q53.7 129.6902 53.184376 129.97145Q52.66875 130.2527 51.91875 130.2527Q51.2 130.2527 50.7 130.0027Q50.215626 129.73708 49.91875 129.2527Q49.621876 128.7527 49.496876 128.03395Q49.371876 127.299576 49.371876 126.362076Q49.371876 125.5027 49.5125 124.78395Q49.653126 124.049576 49.965626 123.53395Q50.29375 123.018326 50.809376 122.737076Q51.325 122.455826 52.075 122.455826Q52.79375 122.455826 53.278126 122.705826Q53.7625 122.955826 54.059376 123.455826Q54.371876 123.955826 54.496876 124.674576Q54.621876 125.393326 54.621876 126.330826ZM53.590626 126.40895Q53.590626 125.830826 53.54375 125.393326Q53.496876 124.9402 53.41875 124.59645Q53.340626 124.237076 53.215626 123.987076Q53.090626 123.737076 52.91875 123.580826Q52.746876 123.424576 52.5125 123.34645Q52.29375 123.268326 52.0125 123.268326Q51.5125 123.268326 51.2 123.5027Q50.8875 123.737076 50.7 124.15895Q50.528126 124.5652 50.465626 125.112076Q50.403126 125.65895 50.403126 126.299576Q50.403126 127.143326 50.48125 127.737076Q50.575 128.33083 50.7625 128.70583Q50.965626 129.08083 51.2625 129.2527Q51.559376 129.42458 51.98125 129.42458Q52.309376 129.42458 52.54375 129.33083Q52.79375 129.22145 52.965626 129.03395Q53.153126 128.83083 53.2625 128.54958Q53.3875 128.26833 53.45 127.9402Q53.528126 127.612076 53.559376 127.22145Q53.590626 126.830826 53.590626 126.40895Z" fill-rule="nonzero"/><path fill="#000000" d="M36.325 61.479168Q36.325 62.088543 36.121876 62.572918Q35.91875 63.041668 35.54375 63.369793Q35.16875 63.682293 34.653126 63.854168Q34.1375 64.02605 33.496876 64.02605Q33.153126 64.02605 32.825 63.979168Q32.5125 63.932293 32.2625 63.854168Q32.028126 63.776043 31.85625 63.713543Q31.7 63.635418 31.653126 63.604168Q31.621876 63.557293 31.60625 63.526043Q31.590626 63.494793 31.575 63.447918Q31.559376 63.385418 31.54375 63.307293Q31.54375 63.229168 31.54375 63.135418Q31.54375 63.026043 31.54375 62.947918Q31.559376 62.869793 31.575 62.822918Q31.60625 62.776043 31.6375 62.760418Q31.66875 62.729168 31.715626 62.729168Q31.778126 62.729168 31.8875 62.807293Q32.0125 62.869793 32.215626 62.963543Q32.434376 63.041668 32.73125 63.119793Q33.04375 63.197918 33.465626 63.197918Q33.85625 63.197918 34.184376 63.104168Q34.5125 63.010418 34.746876 62.807293Q34.996876 62.604168 35.121876 62.307293Q35.2625 62.010418 35.2625 61.572918Q35.2625 61.213543 35.1375 60.932293Q35.028126 60.651043 34.79375 60.463543Q34.559376 60.276043 34.2 60.197918Q33.840626 60.104168 33.325 60.104168Q32.965626 60.104168 32.7 60.135418Q32.45 60.166668 32.23125 60.166668Q32.075 60.166668 31.996876 60.104168Q31.934376 60.026043 31.934376 59.807293L31.934376 56.713543Q31.934376 56.526043 32.0125 56.432293Q32.10625 56.338543 32.278126 56.338543L35.6375 56.338543Q35.684376 56.338543 35.73125 56.369793Q35.778126 56.385418 35.79375 56.447918Q35.825 56.494793 35.840626 56.572918Q35.85625 56.651043 35.85625 56.760418Q35.85625 56.979168 35.79375 57.104168Q35.746876 57.213543 35.6375 57.213543L32.809376 57.213543L32.809376 59.338543Q33.0125 59.307293 33.215626 59.307293Q33.434376 59.291668 33.715626 59.291668Q34.371876 59.291668 34.85625 59.447918Q35.340626 59.604168 35.66875 59.901043Q35.996876 60.182293 36.153126 60.588543Q36.325 60.979168 36.325 61.479168ZM42.621876 60.104168Q42.621876 60.979168 42.48125 61.697918Q42.340626 62.416668 42.0125 62.947918Q41.7 63.463543 41.184376 63.744793Q40.66875 64.02605 39.91875 64.02605Q39.2 64.02605 38.7 63.776043Q38.215626 63.510418 37.91875 63.026043Q37.621876 62.526043 37.496876 61.807293Q37.371876 61.072918 37.371876 60.135418Q37.371876 59.276043 37.5125 58.557293Q37.653126 57.822918 37.965626 57.307293Q38.29375 56.791668 38.809376 56.510418Q39.325 56.229168 40.075 56.229168Q40.79375 56.229168 41.278126 56.479168Q41.7625 56.729168 42.059376 57.229168Q42.371876 57.729168 42.496876 58.447918Q42.621876 59.166668 42.621876 60.104168ZM41.590626 60.182293Q41.590626 59.604168 41.54375 59.166668Q41.496876 58.713543 41.41875 58.369793Q41.340626 58.010418 41.215626 57.760418Q41.090626 57.510418 40.91875 57.354168Q40.746876 57.197918 40.5125 57.119793Q40.29375 57.041668 40.0125 57.041668Q39.5125 57.041668 39.2 57.276043Q38.8875 57.510418 38.7 57.932293Q38.528126 58.338543 38.465626 58.885418Q38.403126 59.432293 38.403126 60.072918Q38.403126 60.916668 38.48125 61.510418Q38.575 62.104168 38.7625 62.479168Q38.965626 62.854168 39.2625 63.026043Q39.559376 63.197918 39.98125 63.197918Q40.309376 63.197918 40.54375 63.104168Q40.79375 62.994793 40.965626 62.807293Q41.153126 62.604168 41.2625 62.322918Q41.3875 62.041668 41.45 61.713543Q41.528126 61.385418 41.559376 60.994793Q41.590626 60.604168 41.590626 60.182293ZM48.621876 60.104168Q48.621876 60.979168 48.48125 61.697918Q48.340626 62.416668 48.0125 62.947918Q47.7 63.463543 47.184376 63.744793Q46.66875 64.02605 45.91875 64.02605Q45.2 64.02605 44.7 63.776043Q44.215626 63.510418 43.91875 63.026043Q43.621876 62.526043 43.496876 61.807293Q43.371876 61.072918 43.371876 60.135418Q43.371876 59.276043 43.5125 58.557293Q43.653126 57.822918 43.965626 57.307293Q44.29375 56.791668 44.809376 56.510418Q45.325 56.229168 46.075 56.229168Q46.79375 56.229168 47.278126 56.479168Q47.7625 56.729168 48.059376 57.229168Q48.371876 57.729168 48.496876 58.447918Q48.621876 59.166668 48.621876 60.104168ZM47.590626 60.182293Q47.590626 59.604168 47.54375 59.166668Q47.496876 58.713543 47.41875 58.369793Q47.340626 58.010418 47.215626 57.760418Q47.090626 57.510418 46.91875 57.354168Q46.746876 57.197918 46.5125 57.119793Q46.29375 57.041668 46.0125 57.041668Q45.5125 57.041668 45.2 57.276043Q44.8875 57.510418 44.7 57.932293Q44.528126 58.338543 44.465626 58.885418Q44.403126 59.432293 44.403126 60.072918Q44.403126 60.916668 44.48125 61.510418Q44.575 62.104168 44.7625 62.479168Q44.965626 62.854168 45.2625 63.026043Q45.559376 63.197918 45.98125 63.197918Q46.309376 63.197918 46.54375 63.104168Q46.79375 62.994793 46.965626 62.807293Q47.153126 62.604168 47.2625 62.322918Q47.3875 62.041668 47.45 61.713543Q47.528126 61.385418 47.559376 60.994793Q47.590626 60.604168 47.590626 60.182293ZM54.621876 60.104168Q54.621876 60.979168 54.48125 61.697918Q54.340626 62.416668 54.0125 62.947918Q53.7 63.463543 53.184376 63.744793Q52.66875 64.02605 51.91875 64.02605Q51.2 64.02605 50.7 63.776043Q50.215626 63.510418 49.91875 63.026043Q49.621876 62.526043 49.496876 61.807293Q49.371876 61.072918 49.371876 60.135418Q49.371876 59.276043 49.5125 58.557293Q49.653126 57.822918 49.965626 57.307293Q50.29375 56.791668 50.809376 56.510418Q51.325 56.229168 52.075 56.229168Q52.79375 56.229168 53.278126 56.479168Q53.7625 56.729168 54.059376 57.229168Q54.371876 57.729168 54.496876 58.447918Q54.621876 59.166668 54.621876 60.104168ZM53.590626 60.182293Q53.590626 59.604168 53.54375 59.166668Q53.496876 58.713543 53.41875 58.369793Q53.340626 58.010418 53.215626 57.760418Q53.090626 57.510418 52.91875 57.354168Q52.746876 57.197918 52.5125 57.119793Q52.29375 57.041668 52.0125 57.041668Q51.5125 57.041668 51.2 57.276043Q50.8875 57.510418 50.7 57.932293Q50.528126 58.338543 50.465626 58.885418Q50.403126 59.432293 50.403126 60.072918Q50.403126 60.916668 50.48125 61.510418Q50.575 62.104168 50.7625 62.479168Q50.965626 62.854168 51.2625 63.026043Q51.559376 63.197918 51.98125 63.197918Q52.309376 63.197918 52.54375 63.104168Q52.79375 62.994793 52.965626 62.807293Q53.153126 62.604168 53.2625 62.322918Q53.3875 62.041668 53.45 61.713543Q53.528126 61.385418 53.559376 60.994793Q53.590626 60.604168 53.590626 60.182293Z" fill-rule="nonzero"/><path fill="#757575" d="M443.125 34.16875Q443.125 34.325 443.10938 34.45Q443.09375 34.559376 443.0625 34.653126Q443.04688 34.73125 443.0 34.809376Q442.96875 34.871876 442.875 34.965626Q442.78125 35.059376 442.46875 35.2625Q442.15625 35.465626 441.6875 35.653126Q441.21875 35.840626 440.60938 35.965626Q440.01562 36.10625 439.3125 36.10625Q438.07812 36.10625 437.07812 35.7Q436.09375 35.278126 435.39062 34.48125Q434.70312 33.684376 434.32812 32.5125Q433.95312 31.325 433.95312 29.79375Q433.95312 28.23125 434.35938 26.996876Q434.76562 25.7625 435.48438 24.91875Q436.21875 24.059376 437.23438 23.60625Q438.26562 23.153126 439.5 23.153126Q440.04688 23.153126 440.5625 23.2625Q441.09375 23.35625 441.53125 23.5125Q441.96875 23.66875 442.3125 23.8875Q442.65625 24.090626 442.78125 24.215626Q442.90625 24.340626 442.9375 24.41875Q442.98438 24.48125 443.01562 24.575Q443.04688 24.66875 443.04688 24.79375Q443.0625 24.91875 443.0625 25.10625Q443.0625 25.29375 443.04688 25.434376Q443.03125 25.575 442.98438 25.66875Q442.95312 25.746876 442.89062 25.79375Q442.84375 25.840626 442.76562 25.840626Q442.625 25.840626 442.375 25.653126Q442.14062 25.465626 441.75 25.23125Q441.375 24.996876 440.8125 24.809376Q440.26562 24.621876 439.5 24.621876Q438.65625 24.621876 437.96875 24.965626Q437.28125 25.29375 436.78125 25.95Q436.29688 26.60625 436.03125 27.54375Q435.76562 28.48125 435.76562 29.7Q435.76562 30.903126 436.01562 31.825Q436.28125 32.746876 436.76562 33.371876Q437.25 33.98125 437.95312 34.309376Q438.65625 34.621876 439.54688 34.621876Q440.29688 34.621876 440.85938 34.434376Q441.42188 34.246876 441.8125 34.028126Q442.20312 33.79375 442.45312 33.60625Q442.71875 33.41875 442.85938 33.41875Q442.9375 33.41875 442.98438 33.45Q443.03125 33.48125 443.0625 33.559376Q443.09375 33.6375 443.10938 33.79375Q443.125 33.934376 443.125 34.16875ZM453.03125 35.7Q453.03125 35.778126 452.98438 35.840626Q452.95312 35.8875 452.85938 35.934376Q452.78125 35.965626 452.64062 35.98125Q452.5 36.0125 452.29688 36.0125Q452.0625 36.0125 451.92188 35.98125Q451.78125 35.965626 451.70312 35.934376Q451.625 35.8875 451.59375 35.840626Q451.5625 35.778126 451.5625 35.7L451.5625 34.54375Q450.8125 35.371876 450.07812 35.7625Q449.34375 36.1375 448.59375 36.1375Q447.71875 36.1375 447.10938 35.840626Q446.51562 35.54375 446.14062 35.04375Q445.76562 34.54375 445.60938 33.871876Q445.45312 33.2 445.45312 32.246876L445.45312 26.91875Q445.45312 26.840626 445.48438 26.79375Q445.51562 26.73125 445.60938 26.684376Q445.70312 26.6375 445.85938 26.621876Q446.01562 26.60625 446.25 26.60625Q446.48438 26.60625 446.64062 26.621876Q446.79688 26.6375 446.89062 26.684376Q446.98438 26.73125 447.01562 26.79375Q447.0625 26.840626 447.0625 26.91875L447.0625 32.028126Q447.0625 32.809376 447.17188 33.278126Q447.29688 33.73125 447.51562 34.059376Q447.75 34.3875 448.09375 34.575Q448.45312 34.746876 448.92188 34.746876Q449.53125 34.746876 450.125 34.325Q450.73438 33.8875 451.40625 33.059376L451.40625 26.91875Q451.40625 26.840626 451.4375 26.79375Q451.46875 26.73125 451.5625 26.684376Q451.67188 26.6375 451.8125 26.621876Q451.96875 26.60625 452.21875 26.60625Q452.45312 26.60625 452.60938 26.621876Q452.76562 26.6375 452.84375 26.684376Q452.9375 26.73125 452.98438 26.79375Q453.03125 26.840626 453.03125 26.91875L453.03125 35.7ZM469.53125 35.7Q469.53125 35.778126 469.48438 35.840626Q469.45312 35.8875 469.35938 35.934376Q469.28125 35.965626 469.125 35.98125Q468.96875 36.0125 468.73438 36.0125Q468.48438 36.0125 468.32812 35.98125Q468.17188 35.965626 468.07812 35.934376Q467.98438 35.8875 467.9375 35.840626Q467.90625 35.778126 467.90625 35.7L467.90625 30.35625Q467.90625 29.809376 467.8125 29.35625Q467.71875 28.8875 467.5 28.559376Q467.28125 28.23125 466.95312 28.059376Q466.625 27.871876 466.17188 27.871876Q465.60938 27.871876 465.04688 28.309376Q464.5 28.73125 463.8125 29.559376L463.8125 35.7Q463.8125 35.778126 463.76562 35.840626Q463.73438 35.8875 463.64062 35.934376Q463.5625 35.965626 463.40625 35.98125Q463.25 36.0125 463.01562 36.0125Q462.78125 36.0125 462.625 35.98125Q462.46875 35.965626 462.375 35.934376Q462.28125 35.8875 462.23438 35.840626Q462.20312 35.778126 462.20312 35.7L462.20312 30.35625Q462.20312 29.809376 462.09375 29.35625Q462.0 28.8875 461.78125 28.559376Q461.5625 28.23125 461.23438 28.059376Q460.90625 27.871876 460.45312 27.871876Q459.90625 27.871876 459.32812 28.309376Q458.76562 28.73125 458.10938 29.559376L458.10938 35.7Q458.10938 35.778126 458.0625 35.840626Q458.03125 35.8875 457.9375 35.934376Q457.85938 35.965626 457.70312 35.98125Q457.54688 36.0125 457.29688 36.0125Q457.0625 36.0125 456.90625 35.98125Q456.75 35.965626 456.65625 35.934376Q456.5625 35.8875 456.53125 35.840626Q456.5 35.778126 456.5 35.7L456.5 26.91875Q456.5 26.840626 456.51562 26.79375Q456.54688 26.73125 456.64062 26.684376Q456.73438 26.6375 456.85938 26.621876Q457.0 26.60625 457.23438 26.60625Q457.4375 26.60625 457.57812 26.621876Q457.71875 26.6375 457.79688 26.684376Q457.875 26.73125 457.90625 26.79375Q457.95312 26.840626 457.95312 26.91875L457.95312 28.075Q458.6875 27.246876 459.39062 26.871876Q460.09375 26.48125 460.79688 26.48125Q461.34375 26.48125 461.78125 26.60625Q462.21875 26.73125 462.54688 26.965626Q462.875 27.184376 463.10938 27.5125Q463.34375 27.825 463.5 28.215626Q463.95312 27.73125 464.34375 27.403126Q464.73438 27.075 465.09375 26.871876Q465.46875 26.66875 465.8125 26.575Q466.15625 26.48125 466.51562 26.48125Q467.35938 26.48125 467.9375 26.778126Q468.51562 27.075 468.875 27.575Q469.23438 28.075 469.375 28.746876Q469.53125 29.403126 469.53125 30.153126L469.53125 35.7ZM480.03125 35.7Q480.03125 35.778126 479.98438 35.840626Q479.95312 35.8875 479.85938 35.934376Q479.78125 35.965626 479.64062 35.98125Q479.5 36.0125 479.29688 36.0125Q479.0625 36.0125 478.92188 35.98125Q478.78125 35.965626 478.70312 35.934376Q478.625 35.8875 478.59375 35.840626Q478.5625 35.778126 478.5625 35.7L478.5625 34.54375Q477.8125 35.371876 477.07812 35.7625Q476.34375 36.1375 475.59375 36.1375Q474.71875 36.1375 474.10938 35.840626Q473.51562 35.54375 473.14062 35.04375Q472.76562 34.54375 472.60938 33.871876Q472.45312 33.2 472.45312 32.246876L472.45312 26.91875Q472.45312 26.840626 472.48438 26.79375Q472.51562 26.73125 472.60938 26.684376Q472.70312 26.6375 472.85938 26.621876Q473.01562 26.60625 473.25 26.60625Q473.48438 26.60625 473.64062 26.621876Q473.79688 26.6375 473.89062 26.684376Q473.98438 26.73125 474.01562 26.79375Q474.0625 26.840626 474.0625 26.91875L474.0625 32.028126Q474.0625 32.809376 474.17188 33.278126Q474.29688 33.73125 474.51562 34.059376Q474.75 34.3875 475.09375 34.575Q475.45312 34.746876 475.92188 34.746876Q476.53125 34.746876 477.125 34.325Q477.73438 33.8875 478.40625 33.059376L478.40625 26.91875Q478.40625 26.840626 478.4375 26.79375Q478.46875 26.73125 478.5625 26.684376Q478.67188 26.6375 478.8125 26.621876Q478.96875 26.60625 479.21875 26.60625Q479.45312 26.60625 479.60938 26.621876Q479.76562 26.6375 479.84375 26.684376Q479.9375 26.73125 479.98438 26.79375Q480.03125 26.840626 480.03125 26.91875L480.03125 35.7ZM485.10938 35.7Q485.10938 35.778126 485.0625 35.840626Q485.03125 35.8875 484.9375 35.934376Q484.85938 35.965626 484.70312 35.98125Q484.54688 36.0125 484.29688 36.0125Q484.0625 36.0125 483.90625 35.98125Q483.75 35.965626 483.65625 35.934376Q483.5625 35.8875 483.53125 35.840626Q483.5 35.778126 483.5 35.7L483.5 22.653126Q483.5 22.575 483.53125 22.528126Q483.5625 22.465626 483.65625 22.434376Q483.75 22.3875 483.90625 22.371876Q484.0625 22.340626 484.29688 22.340626Q484.54688 22.340626 484.70312 22.371876Q484.85938 22.3875 484.9375 22.434376Q485.03125 22.465626 485.0625 22.528126Q485.10938 22.575 485.10938 22.653126L485.10938 35.7ZM495.10938 35.715626Q495.10938 35.825 495.03125 35.8875Q494.95312 35.95 494.8125 35.98125Q494.6875 36.0125 494.42188 36.0125Q494.17188 36.0125 494.01562 35.98125Q493.85938 35.95 493.79688 35.8875Q493.73438 35.825 493.73438 35.715626L493.73438 34.840626Q493.15625 35.45 492.4375 35.79375Q491.73438 36.1375 490.95312 36.1375Q490.25 36.1375 489.6875 35.95Q489.125 35.778126 488.73438 35.434376Q488.34375 35.090626 488.125 34.590626Q487.90625 34.090626 487.90625 33.465626Q487.90625 32.715626 488.20312 32.16875Q488.5 31.621876 489.0625 31.2625Q489.64062 30.903126 490.45312 30.73125Q491.28125 30.54375 492.29688 30.54375L493.51562 30.54375L493.51562 29.85625Q493.51562 29.340626 493.40625 28.95Q493.29688 28.559376 493.0625 28.309376Q492.82812 28.04375 492.4375 27.91875Q492.0625 27.778126 491.5 27.778126Q490.90625 27.778126 490.42188 27.934376Q489.95312 28.075 489.59375 28.246876Q489.25 28.403126 489.0 28.559376Q488.76562 28.7 488.65625 28.7Q488.57812 28.7 488.51562 28.66875Q488.45312 28.621876 488.40625 28.54375Q488.375 28.465626 488.34375 28.340626Q488.32812 28.215626 488.32812 28.075Q488.32812 27.825 488.35938 27.684376Q488.39062 27.54375 488.51562 27.41875Q488.65625 27.29375 488.98438 27.121876Q489.3125 26.95 489.71875 26.809376Q490.14062 26.66875 490.64062 26.575Q491.14062 26.48125 491.65625 26.48125Q492.59375 26.48125 493.25 26.7Q493.92188 26.903126 494.32812 27.325Q494.75 27.73125 494.92188 28.35625Q495.10938 28.965626 495.10938 29.79375L495.10938 35.715626ZM493.51562 31.7L492.14062 31.7Q491.46875 31.7 490.98438 31.809376Q490.5 31.91875 490.17188 32.153126Q489.85938 32.371876 489.70312 32.684376Q489.54688 32.98125 489.54688 33.3875Q489.54688 34.059376 489.98438 34.465626Q490.42188 34.871876 491.20312 34.871876Q491.82812 34.871876 492.375 34.559376Q492.92188 34.23125 493.51562 33.559376L493.51562 31.7ZM503.0625 35.059376Q503.0625 35.340626 503.01562 35.5125Q502.98438 35.66875 502.90625 35.746876Q502.82812 35.825 502.67188 35.903126Q502.51562 35.965626 502.3125 36.0125Q502.125 36.059376 501.89062 36.090626Q501.67188 36.121876 501.4375 36.121876Q500.76562 36.121876 500.26562 35.934376Q499.78125 35.746876 499.46875 35.3875Q499.15625 35.028126 499.01562 34.465626Q498.875 33.903126 498.875 33.1375L498.875 27.996876L497.64062 27.996876Q497.5 27.996876 497.40625 27.840626Q497.32812 27.684376 497.32812 27.340626Q497.32812 27.153126 497.34375 27.028126Q497.375 26.903126 497.40625 26.825Q497.45312 26.73125 497.51562 26.7Q497.57812 26.66875 497.65625 26.66875L498.875 26.66875L498.875 24.575Q498.875 24.496876 498.90625 24.45Q498.9375 24.3875 499.03125 24.340626Q499.125 24.29375 499.28125 24.278126Q499.4375 24.2625 499.67188 24.2625Q499.92188 24.2625 500.07812 24.278126Q500.23438 24.29375 500.3125 24.340626Q500.40625 24.3875 500.4375 24.45Q500.48438 24.496876 500.48438 24.575L500.48438 26.66875L502.75 26.66875Q502.82812 26.66875 502.875 26.7Q502.9375 26.73125 502.98438 26.825Q503.03125 26.903126 503.04688 27.028126Q503.0625 27.153126 503.0625 27.340626Q503.0625 27.684376 502.96875 27.840626Q502.89062 27.996876 502.75 27.996876L500.48438 27.996876L500.48438 32.903126Q500.48438 33.809376 500.75 34.278126Q501.03125 34.73125 501.71875 34.73125Q501.9375 34.73125 502.10938 34.7Q502.29688 34.653126 502.42188 34.60625Q502.5625 34.559376 502.65625 34.5125Q502.76562 34.465626 502.84375 34.465626Q502.89062 34.465626 502.9375 34.496876Q502.98438 34.5125 503.0 34.590626Q503.03125 34.653126 503.04688 34.778126Q503.0625 34.8875 503.0625 35.059376ZM513.0 30.934376Q513.0 31.309376 512.7969 31.48125Q512.6094 31.6375 512.375 31.6375L506.60938 31.6375Q506.60938 32.371876 506.75 32.965626Q506.90625 33.54375 507.23438 33.965626Q507.57812 34.371876 508.125 34.60625Q508.67188 34.825 509.46875 34.825Q510.09375 34.825 510.57812 34.73125Q511.07812 34.621876 511.42188 34.496876Q511.78125 34.371876 512.0156 34.278126Q512.25 34.16875 512.3594 34.16875Q512.4219 34.16875 512.46875 34.2Q512.53125 34.23125 512.5625 34.309376Q512.59375 34.371876 512.6094 34.496876Q512.625 34.60625 512.625 34.79375Q512.625 34.91875 512.6094 35.0125Q512.6094 35.10625 512.59375 35.184376Q512.5781 35.246876 512.53125 35.309376Q512.5 35.35625 512.4531 35.41875Q512.40625 35.465626 512.1406 35.590626Q511.875 35.715626 511.45312 35.840626Q511.03125 35.95 510.46875 36.04375Q509.92188 36.1375 509.29688 36.1375Q508.21875 36.1375 507.40625 35.840626Q506.59375 35.528126 506.03125 34.934376Q505.46875 34.340626 505.1875 33.45Q504.90625 32.54375 504.90625 31.35625Q504.90625 30.215626 505.20312 29.309376Q505.5 28.403126 506.04688 27.778126Q506.59375 27.153126 507.375 26.825Q508.15625 26.48125 509.125 26.48125Q510.15625 26.48125 510.89062 26.809376Q511.625 27.1375 512.09375 27.7Q512.5625 28.2625 512.78125 29.028126Q513.0 29.778126 513.0 30.6375L513.0 30.934376ZM511.375 30.45Q511.40625 29.184376 510.8125 28.465626Q510.21875 27.73125 509.0625 27.73125Q508.46875 27.73125 508.01562 27.965626Q507.5625 28.184376 507.25 28.559376Q506.95312 28.934376 506.78125 29.434376Q506.625 29.91875 506.60938 30.45L511.375 30.45ZM523.03125 35.7Q523.03125 35.778126 522.9844 35.840626Q522.9531 35.903126 522.875 35.934376Q522.7969 35.965626 522.65625 35.98125Q522.5156 36.0125 522.3281 36.0125Q522.1094 36.0125 521.96875 35.98125Q521.84375 35.965626 521.75 35.934376Q521.6719 35.903126 521.625 35.840626Q521.59375 35.778126 521.59375 35.7L521.59375 34.54375Q520.8906 35.29375 520.1406 35.715626Q519.40625 36.1375 518.5156 36.1375Q517.5469 36.1375 516.8594 35.7625Q516.1719 35.3875 515.75 34.746876Q515.3281 34.10625 515.125 33.246876Q514.9375 32.371876 514.9375 31.41875Q514.9375 30.278126 515.1719 29.371876Q515.4219 28.465626 515.90625 27.825Q516.3906 27.16875 517.09375 26.825Q517.7969 26.48125 518.7344 26.48125Q519.5 26.48125 520.1406 26.825Q520.78125 27.153126 521.40625 27.809376L521.40625 22.7Q521.40625 22.621876 521.4375 22.559376Q521.46875 22.496876 521.5625 22.465626Q521.6719 22.434376 521.8125 22.41875Q521.96875 22.3875 522.2031 22.3875Q522.4531 22.3875 522.6094 22.41875Q522.7656 22.434376 522.84375 22.465626Q522.9375 22.496876 522.9844 22.559376Q523.03125 22.621876 523.03125 22.7L523.03125 35.7ZM521.40625 29.528126Q520.75 28.715626 520.1406 28.29375Q519.53125 27.85625 518.8594 27.85625Q518.25 27.85625 517.8125 28.153126Q517.3906 28.45 517.125 28.934376Q516.8594 29.403126 516.7344 30.0125Q516.6094 30.621876 516.6094 31.246876Q516.6094 31.903126 516.7031 32.54375Q516.8125 33.16875 517.0625 33.66875Q517.3281 34.16875 517.7344 34.465626Q518.15625 34.7625 518.7969 34.7625Q519.125 34.7625 519.4219 34.66875Q519.71875 34.575 520.03125 34.371876Q520.34375 34.16875 520.6719 33.840626Q521.0156 33.5125 521.40625 33.04375L521.40625 29.528126ZM540.125 34.16875Q540.125 34.325 540.1094 34.45Q540.09375 34.559376 540.0625 34.653126Q540.0469 34.73125 540.0 34.809376Q539.96875 34.871876 539.875 34.965626Q539.78125 35.059376 539.46875 35.2625Q539.15625 35.465626 538.6875 35.653126Q538.21875 35.840626 537.6094 35.965626Q537.0156 36.10625 536.3125 36.10625Q535.0781 36.10625 534.0781 35.7Q533.09375 35.278126 532.3906 34.48125Q531.7031 33.684376 531.3281 32.5125Q530.9531 31.325 530.9531 29.79375Q530.9531 28.23125 531.3594 26.996876Q531.7656 25.7625 532.4844 24.91875Q533.21875 24.059376 534.2344 23.60625Q535.2656 23.153126 536.5 23.153126Q537.0469 23.153126 537.5625 23.2625Q538.09375 23.35625 538.53125 23.5125Q538.96875 23.66875 539.3125 23.8875Q539.65625 24.090626 539.78125 24.215626Q539.90625 24.340626 539.9375 24.41875Q539.9844 24.48125 540.0156 24.575Q540.0469 24.66875 540.0469 24.79375Q540.0625 24.91875 540.0625 25.10625Q540.0625 25.29375 540.0469 25.434376Q540.03125 25.575 539.9844 25.66875Q539.9531 25.746876 539.8906 25.79375Q539.84375 25.840626 539.7656 25.840626Q539.625 25.840626 539.375 25.653126Q539.1406 25.465626 538.75 25.23125Q538.375 24.996876 537.8125 24.809376Q537.2656 24.621876 536.5 24.621876Q535.65625 24.621876 534.96875 24.965626Q534.28125 25.29375 533.78125 25.95Q533.2969 26.60625 533.03125 27.54375Q532.7656 28.48125 532.7656 29.7Q532.7656 30.903126 533.0156 31.825Q533.28125 32.746876 533.7656 33.371876Q534.25 33.98125 534.9531 34.309376Q535.65625 34.621876 536.5469 34.621876Q537.2969 34.621876 537.8594 34.434376Q538.4219 34.246876 538.8125 34.028126Q539.2031 33.79375 539.4531 33.60625Q539.71875 33.41875 539.8594 33.41875Q539.9375 33.41875 539.9844 33.45Q540.03125 33.48125 540.0625 33.559376Q540.09375 33.6375 540.1094 33.79375Q540.125 33.934376 540.125 34.16875ZM549.1094 35.715626Q549.1094 35.825 549.03125 35.8875Q548.9531 35.95 548.8125 35.98125Q548.6875 36.0125 548.4219 36.0125Q548.1719 36.0125 548.0156 35.98125Q547.8594 35.95 547.7969 35.8875Q547.7344 35.825 547.7344 35.715626L547.7344 34.840626Q547.15625 35.45 546.4375 35.79375Q545.7344 36.1375 544.9531 36.1375Q544.25 36.1375 543.6875 35.95Q543.125 35.778126 542.7344 35.434376Q542.34375 35.090626 542.125 34.590626Q541.90625 34.090626 541.90625 33.465626Q541.90625 32.715626 542.2031 32.16875Q542.5 31.621876 543.0625 31.2625Q543.6406 30.903126 544.4531 30.73125Q545.28125 30.54375 546.2969 30.54375L547.5156 30.54375L547.5156 29.85625Q547.5156 29.340626 547.40625 28.95Q547.2969 28.559376 547.0625 28.309376Q546.8281 28.04375 546.4375 27.91875Q546.0625 27.778126 545.5 27.778126Q544.90625 27.778126 544.4219 27.934376Q543.9531 28.075 543.59375 28.246876Q543.25 28.403126 543.0 28.559376Q542.7656 28.7 542.65625 28.7Q542.5781 28.7 542.5156 28.66875Q542.4531 28.621876 542.40625 28.54375Q542.375 28.465626 542.34375 28.340626Q542.3281 28.215626 542.3281 28.075Q542.3281 27.825 542.3594 27.684376Q542.3906 27.54375 542.5156 27.41875Q542.65625 27.29375 542.9844 27.121876Q543.3125 26.95 543.71875 26.809376Q544.1406 26.66875 544.6406 26.575Q545.1406 26.48125 545.65625 26.48125Q546.59375 26.48125 547.25 26.7Q547.9219 26.903126 548.3281 27.325Q548.75 27.73125 548.9219 28.35625Q549.1094 28.965626 549.1094 29.79375L549.1094 35.715626ZM547.5156 31.7L546.1406 31.7Q545.46875 31.7 544.9844 31.809376Q544.5 31.91875 544.1719 32.153126Q543.8594 32.371876 543.7031 32.684376Q543.5469 32.98125 543.5469 33.3875Q543.5469 34.059376 543.9844 34.465626Q544.4219 34.871876 545.2031 34.871876Q545.8281 34.871876 546.375 34.559376Q546.9219 34.23125 547.5156 33.559376L547.5156 31.7ZM558.0156 33.309376Q558.0156 33.98125 557.7656 34.5125Q557.5156 35.04375 557.0469 35.403126Q556.59375 35.7625 555.9531 35.95Q555.3281 36.1375 554.5625 36.1375Q554.09375 36.1375 553.6719 36.059376Q553.25 35.996876 552.90625 35.8875Q552.5781 35.7625 552.34375 35.6375Q552.1094 35.5125 552.0 35.41875Q551.8906 35.325 551.84375 35.153126Q551.7969 34.965626 551.7969 34.66875Q551.7969 34.48125 551.8125 34.35625Q551.8281 34.23125 551.8594 34.153126Q551.8906 34.075 551.9375 34.04375Q552.0 34.0125 552.0625 34.0125Q552.1719 34.0125 552.375 34.1375Q552.59375 34.2625 552.8906 34.41875Q553.2031 34.575 553.625 34.715626Q554.0469 34.840626 554.59375 34.840626Q555.0 34.840626 555.3281 34.7625Q555.6719 34.66875 555.90625 34.496876Q556.15625 34.325 556.28125 34.059376Q556.4219 33.79375 556.4219 33.434376Q556.4219 33.075 556.2344 32.825Q556.0469 32.559376 555.7344 32.371876Q555.4219 32.16875 555.03125 32.028126Q554.6406 31.871876 554.21875 31.7Q553.7969 31.528126 553.40625 31.325Q553.0156 31.121876 552.7031 30.825Q552.3906 30.5125 552.1875 30.090626Q552.0 29.66875 552.0 29.090626Q552.0 28.559376 552.2031 28.090626Q552.40625 27.621876 552.7969 27.2625Q553.2031 26.903126 553.7969 26.7Q554.40625 26.48125 555.2031 26.48125Q555.5625 26.48125 555.90625 26.54375Q556.2656 26.590626 556.5469 26.684376Q556.8281 26.7625 557.03125 26.871876Q557.2344 26.98125 557.3281 27.059376Q557.4375 27.1375 557.46875 27.2Q557.5 27.246876 557.5156 27.325Q557.53125 27.3875 557.5469 27.496876Q557.5625 27.60625 557.5625 27.7625Q557.5625 27.934376 557.5469 28.059376Q557.53125 28.16875 557.5 28.246876Q557.46875 28.325 557.4219 28.371876Q557.375 28.403126 557.3125 28.403126Q557.21875 28.403126 557.0469 28.29375Q556.8906 28.184376 556.625 28.059376Q556.3594 27.934376 556.0 27.840626Q555.65625 27.73125 555.1875 27.73125Q554.78125 27.73125 554.46875 27.825Q554.15625 27.91875 553.9531 28.090626Q553.75 28.246876 553.6406 28.48125Q553.5469 28.715626 553.5469 28.996876Q553.5469 29.371876 553.7344 29.6375Q553.9375 29.8875 554.25 30.090626Q554.5625 30.278126 554.9531 30.434376Q555.3594 30.590626 555.78125 30.7625Q556.2031 30.934376 556.59375 31.1375Q557.0 31.340626 557.3125 31.6375Q557.625 31.91875 557.8125 32.340626Q558.0156 32.746876 558.0156 33.309376ZM568.0625 35.7Q568.0625 35.778126 568.0156 35.840626Q567.9844 35.8875 567.8906 35.934376Q567.8125 35.965626 567.65625 35.98125Q567.5 36.0125 567.2656 36.0125Q567.0156 36.0125 566.8594 35.98125Q566.7031 35.965626 566.6094 35.934376Q566.53125 35.8875 566.4844 35.840626Q566.4531 35.778126 566.4531 35.7L566.4531 30.559376Q566.4531 29.809376 566.3281 29.35625Q566.21875 28.8875 565.9844 28.559376Q565.7656 28.23125 565.40625 28.059376Q565.0625 27.871876 564.59375 27.871876Q563.9844 27.871876 563.375 28.309376Q562.7656 28.73125 562.1094 29.559376L562.1094 35.7Q562.1094 35.778126 562.0625 35.840626Q562.03125 35.8875 561.9375 35.934376Q561.8594 35.965626 561.7031 35.98125Q561.5469 36.0125 561.2969 36.0125Q561.0625 36.0125 560.90625 35.98125Q560.75 35.965626 560.65625 35.934376Q560.5625 35.8875 560.53125 35.840626Q560.5 35.778126 560.5 35.7L560.5 22.653126Q560.5 22.575 560.53125 22.528126Q560.5625 22.465626 560.65625 22.434376Q560.75 22.3875 560.90625 22.371876Q561.0625 22.340626 561.2969 22.340626Q561.5469 22.340626 561.7031 22.371876Q561.8594 22.3875 561.9375 22.434376Q562.03125 22.465626 562.0625 22.528126Q562.1094 22.575 562.1094 22.653126L562.1094 27.91875Q562.7969 27.184376 563.5 26.840626Q564.2031 26.48125 564.9219 26.48125Q565.7969 26.48125 566.3906 26.778126Q567.0 27.075 567.3594 27.575Q567.7344 28.075 567.8906 28.746876Q568.0625 29.403126 568.0625 30.35625L568.0625 35.7ZM583.3281 24.028126Q583.3281 24.215626 583.2969 24.35625Q583.28125 24.496876 583.2344 24.575Q583.1875 24.653126 583.125 24.7Q583.0625 24.73125 582.9844 24.73125L578.3594 24.73125L578.3594 29.028126L582.7344 29.028126Q582.7969 29.028126 582.8594 29.075Q582.9375 29.10625 582.9844 29.184376Q583.03125 29.2625 583.0469 29.403126Q583.0625 29.528126 583.0625 29.73125Q583.0625 29.91875 583.0469 30.059376Q583.03125 30.184376 582.9844 30.2625Q582.9375 30.340626 582.8594 30.3875Q582.7969 30.434376 582.7344 30.434376L578.3594 30.434376L578.3594 35.7Q578.3594 35.7625 578.3125 35.825Q578.28125 35.8875 578.1875 35.934376Q578.09375 35.965626 577.9375 35.98125Q577.78125 36.0125 577.5156 36.0125Q577.28125 36.0125 577.1094 35.98125Q576.9531 35.965626 576.8594 35.934376Q576.7656 35.8875 576.71875 35.825Q576.6875 35.7625 576.6875 35.7L576.6875 23.996876Q576.6875 23.621876 576.875 23.465626Q577.0781 23.309376 577.3125 23.309376L582.9844 23.309376Q583.0625 23.309376 583.125 23.35625Q583.1875 23.3875 583.2344 23.48125Q583.28125 23.559376 583.2969 23.715626Q583.3281 23.85625 583.3281 24.028126ZM587.1094 35.7Q587.1094 35.778126 587.0625 35.840626Q587.03125 35.8875 586.9375 35.934376Q586.8594 35.965626 586.7031 35.98125Q586.5469 36.0125 586.2969 36.0125Q586.0625 36.0125 585.90625 35.98125Q585.75 35.965626 585.65625 35.934376Q585.5625 35.8875 585.53125 35.840626Q585.5 35.778126 585.5 35.7L585.5 22.653126Q585.5 22.575 585.53125 22.528126Q585.5625 22.465626 585.65625 22.434376Q585.75 22.3875 585.90625 22.371876Q586.0625 22.340626 586.2969 22.340626Q586.5469 22.340626 586.7031 22.371876Q586.8594 22.3875 586.9375 22.434376Q587.03125 22.465626 587.0625 22.528126Q587.1094 22.575 587.1094 22.653126L587.1094 35.7ZM598.6719 31.215626Q598.6719 32.29375 598.3906 33.2Q598.1094 34.090626 597.5469 34.746876Q596.9844 35.403126 596.1406 35.778126Q595.2969 36.1375 594.1719 36.1375Q593.09375 36.1375 592.28125 35.825Q591.4844 35.496876 590.9375 34.8875Q590.40625 34.2625 590.1406 33.3875Q589.875 32.496876 589.875 31.3875Q589.875 30.309376 590.15625 29.41875Q590.4375 28.5125 591.0 27.85625Q591.5625 27.2 592.3906 26.840626Q593.2344 26.48125 594.3594 26.48125Q595.4531 26.48125 596.25 26.809376Q597.0625 27.121876 597.59375 27.746876Q598.125 28.35625 598.3906 29.23125Q598.6719 30.10625 598.6719 31.215626ZM596.96875 31.325Q596.96875 30.60625 596.8281 29.98125Q596.7031 29.340626 596.3906 28.871876Q596.09375 28.3875 595.5781 28.10625Q595.0625 27.825 594.2969 27.825Q593.5781 27.825 593.0625 28.075Q592.5625 28.325 592.21875 28.79375Q591.8906 29.2625 591.71875 29.903126Q591.5625 30.528126 591.5625 31.278126Q591.5625 31.996876 591.6875 32.6375Q591.8281 33.278126 592.1406 33.746876Q592.4531 34.215626 592.96875 34.496876Q593.4844 34.778126 594.25 34.778126Q594.9531 34.778126 595.46875 34.528126Q596.0 34.2625 596.3281 33.809376Q596.65625 33.35625 596.8125 32.715626Q596.96875 32.075 596.96875 31.325ZM613.7969 26.903126Q613.7969 26.965626 613.7656 27.059376Q613.75 27.153126 613.7031 27.309376L611.1094 35.653126Q611.0781 35.7625 611.0156 35.840626Q610.9531 35.903126 610.84375 35.95Q610.7344 35.98125 610.53125 35.996876Q610.34375 36.0125 610.0469 36.0125Q609.75 36.0125 609.5469 35.98125Q609.34375 35.965626 609.21875 35.934376Q609.09375 35.8875 609.03125 35.825Q608.96875 35.746876 608.9531 35.653126L607.09375 29.278126L607.0781 29.184376L607.0625 29.278126L605.3594 35.653126Q605.3281 35.7625 605.2656 35.840626Q605.2031 35.903126 605.0625 35.95Q604.9375 35.98125 604.7344 35.996876Q604.5469 36.0125 604.25 36.0125Q603.9531 36.0125 603.75 35.98125Q603.5625 35.965626 603.4375 35.934376Q603.3281 35.8875 603.2656 35.825Q603.2031 35.746876 603.1719 35.653126L600.6094 27.309376Q600.5625 27.153126 600.53125 27.059376Q600.5156 26.965626 600.5156 26.903126Q600.5156 26.809376 600.5469 26.7625Q600.59375 26.7 600.6875 26.66875Q600.78125 26.6375 600.9375 26.621876Q601.09375 26.60625 601.3125 26.60625Q601.59375 26.60625 601.75 26.621876Q601.9219 26.6375 602.0 26.684376Q602.09375 26.715626 602.125 26.778126Q602.1719 26.840626 602.2031 26.91875L604.3281 34.16875L604.34375 34.2625L604.3594 34.16875L606.3125 26.91875Q606.3281 26.840626 606.375 26.778126Q606.4219 26.715626 606.5 26.684376Q606.59375 26.6375 606.7344 26.621876Q606.8906 26.60625 607.1406 26.60625Q607.375 26.60625 607.5156 26.621876Q607.6719 26.6375 607.7656 26.684376Q607.8594 26.715626 607.8906 26.778126Q607.9375 26.825 607.9531 26.903126L610.0469 34.16875L610.0625 34.2625L610.0781 34.16875L612.1719 26.91875Q612.1875 26.840626 612.2344 26.778126Q612.28125 26.715626 612.375 26.684376Q612.46875 26.6375 612.625 26.621876Q612.78125 26.60625 613.03125 26.60625Q613.2656 26.60625 613.40625 26.621876Q613.5625 26.6375 613.6406 26.684376Q613.71875 26.715626 613.75 26.7625Q613.7969 26.809376 613.7969 26.903126Z" fill-rule="nonzero"/></svg>