<svg version="1.1" viewBox="0.0 0.0 1047.0 419.0" fill="none" stroke="none" stroke-linecap="square" stroke-miterlimit="10" width="1047" height="419" xmlns:xlink="http://www.w3.org/1999/xlink" xmlns="http://www.w3.org/2000/svg"><path fill="#ffffff" d="M0 0L1047.0 0L1047.0 419.0L0 419.0L0 0Z" fill-rule="nonzero"/><path stroke="#333333" stroke-width="1.0" stroke-linecap="butt" d="M56.5 392.5L1026.5 392.5" fill-rule="nonzero"/><path stroke="#cccccc" stroke-width="1.0" stroke-linecap="butt" d="M56.5 309.5L1026.5 309.5" fill-rule="nonzero"/><path stroke="#cccccc" stroke-width="1.0" stroke-linecap="butt" d="M56.5 226.5L1026.5 226.5" fill-rule="nonzero"/><path stroke="#cccccc" stroke-width="1.0" stroke-linecap="butt" d="M56.5 143.5L1026.5 143.5" fill-rule="nonzero"/><path stroke="#cccccc" stroke-width="1.0" stroke-linecap="butt" d="M56.5 60.5L1026.5 60.5" fill-rule="nonzero"/><clipPath id="id_0"><path d="M56.95 60.916668L1026.05 60.916668L1026.05 392.05L56.95 392.05L56.95 60.916668Z" clip-rule="nonzero"/></clipPath><path stroke="#4472c4" stroke-width="2.0" stroke-linecap="butt" clip-path="url(#id_0)" d="M218.46666 78.85553L541.5 390.9242L864.5333 142.0437" fill-rule="nonzero"/><path fill="#000000" fill-opacity="0.0" clip-path="url(#id_0)" d="M221.46666 78.85553C221.46666 80.51238 220.12352 81.85553 218.46666 81.85553C216.80981 81.85553 215.46666 80.51238 215.46666 78.85553C215.46666 77.19867 216.80981 75.85553 218.46666 75.85553C220.12352 75.85553 221.46666 77.19867 221.46666 78.85553Z" fill-rule="nonzero"/><path fill="#000000" fill-opacity="0.0" clip-path="url(#id_0)" d="M544.5 390.9242C544.5 392.58105 543.15686 393.9242 541.5 393.9242C539.84314 393.9242 538.5 392.58105 538.5 390.9242C538.5 389.26736 539.84314 387.9242 541.5 387.9242C543.15686 387.9242 544.5 389.26736 544.5 390.9242Z" fill-rule="nonzero"/><path fill="#000000" fill-opacity="0.0" clip-path="url(#id_0)" d="M867.5333 142.0437C867.5333 143.70056 866.1902 145.0437 864.5333 145.0437C862.87646 145.0437 861.5333 143.70056 861.5333 142.0437C861.5333 140.38686 862.87646 139.0437 864.5333 139.0437C866.1902 139.0437 867.5333 140.38686 867.5333 142.0437Z" fill-rule="nonzero"/><path fill="#000000" d="M50.621876 391.2375Q50.621876 392.1125 50.48125 392.83124Q50.340626 393.55 50.0125 394.08124Q49.7 394.59686 49.184376 394.8781Q48.66875 395.15936 47.91875 395.15936Q47.2 395.15936 46.7 394.90936Q46.215626 394.64374 45.91875 394.15936Q45.621876 393.65936 45.496876 392.9406Q45.371876 392.20624 45.371876 391.26874Q45.371876 390.40936 45.5125 389.6906Q45.653126 388.95624 45.965626 388.4406Q46.29375 387.925 46.809376 387.64374Q47.325 387.3625 48.075 387.3625Q48.79375 387.3625 49.278126 387.6125Q49.7625 387.8625 50.059376 388.3625Q50.371876 388.8625 50.496876 389.58124Q50.621876 390.3 50.621876 391.2375ZM49.590626 391.3156Q49.590626 390.7375 49.54375 390.3Q49.496876 389.84686 49.41875 389.5031Q49.340626 389.14374 49.215626 388.89374Q49.090626 388.64374 48.91875 388.4875Q48.746876 388.33124 48.5125 388.2531Q48.29375 388.175 48.0125 388.175Q47.5125 388.175 47.2 388.40936Q46.8875 388.64374 46.7 389.0656Q46.528126 389.47186 46.465626 390.01874Q46.403126 390.5656 46.403126 391.20624Q46.403126 392.05 46.48125 392.64374Q46.575 393.2375 46.7625 393.6125Q46.965626 393.9875 47.2625 394.15936Q47.559376 394.33124 47.98125 394.33124Q48.309376 394.33124 48.54375 394.2375Q48.79375 394.1281 48.965626 393.9406Q49.153126 393.7375 49.2625 393.45624Q49.3875 393.175 49.45 392.84686Q49.528126 392.51874 49.559376 392.1281Q49.590626 391.7375 49.590626 391.3156Z" fill-rule="nonzero"/><path fill="#000000" d="M32.325 309.82916Q32.325 310.43854 32.121876 310.9229Q31.91875 311.39166 31.54375 311.7198Q31.16875 312.0323 30.653126 312.20416Q30.1375 312.37604 29.496876 312.37604Q29.153126 312.37604 28.825 312.32916Q28.5125 312.2823 28.2625 312.20416Q28.028126 312.12604 27.85625 312.06354Q27.7 311.9854 27.653126 311.95416Q27.621876 311.9073 27.60625 311.87604Q27.590626 311.8448 27.575 311.7979Q27.559376 311.7354 27.54375 311.6573Q27.54375 311.57916 27.54375 311.4854Q27.54375 311.37604 27.54375 311.2979Q27.559376 311.2198 27.575 311.1729Q27.60625 311.12604 27.6375 311.1104Q27.66875 311.07916 27.715626 311.07916Q27.778126 311.07916 27.8875 311.1573Q28.0125 311.2198 28.215626 311.31354Q28.434376 311.39166 28.73125 311.4698Q29.04375 311.5479 29.465626 311.5479Q29.85625 311.5479 30.184376 311.45416Q30.5125 311.3604 30.746876 311.1573Q30.996876 310.95416 31.121876 310.6573Q31.2625 310.3604 31.2625 309.9229Q31.2625 309.56354 31.1375 309.2823Q31.028126 309.00104 30.79375 308.81354Q30.559376 308.62604 30.2 308.5479Q29.840626 308.45416 29.325 308.45416Q28.965626 308.45416 28.7 308.4854Q28.45 308.51666 28.23125 308.51666Q28.075 308.51666 27.996876 308.45416Q27.934376 308.37604 27.934376 308.1573L27.934376 305.06354Q27.934376 304.87604 28.0125 304.7823Q28.10625 304.68854 28.278126 304.68854L31.6375 304.68854Q31.684376 304.68854 31.73125 304.7198Q31.778126 304.7354 31.79375 304.7979Q31.825 304.8448 31.840626 304.9229Q31.85625 305.00104 31.85625 305.1104Q31.85625 305.32916 31.79375 305.45416Q31.746876 305.56354 31.6375 305.56354L28.809376 305.56354L28.809376 307.68854Q29.0125 307.6573 29.215626 307.6573Q29.434376 307.64166 29.715626 307.64166Q30.371876 307.64166 30.85625 307.7979Q31.340626 307.95416 31.66875 308.25104Q31.996876 308.5323 32.153126 308.93854Q32.325 309.32916 32.325 309.82916ZM38.621876 308.45416Q38.621876 309.32916 38.48125 310.0479Q38.340626 310.76666 38.0125 311.2979Q37.7 311.81354 37.184376 312.0948Q36.66875 312.37604 35.91875 312.37604Q35.2 312.37604 34.7 312.12604Q34.215626 311.8604 33.91875 311.37604Q33.621876 310.87604 33.496876 310.1573Q33.371876 309.4229 33.371876 308.4854Q33.371876 307.62604 33.5125 306.9073Q33.653126 306.1729 33.965626 305.6573Q34.29375 305.14166 34.809376 304.8604Q35.325 304.57916 36.075 304.57916Q36.79375 304.57916 37.278126 304.82916Q37.7625 305.07916 38.059376 305.57916Q38.371876 306.07916 38.496876 306.7979Q38.621876 307.51666 38.621876 308.45416ZM37.590626 308.5323Q37.590626 307.95416 37.54375 307.51666Q37.496876 307.06354 37.41875 306.7198Q37.340626 306.3604 37.215626 306.1104Q37.090626 305.8604 36.91875 305.70416Q36.746876 305.5479 36.5125 305.4698Q36.29375 305.39166 36.0125 305.39166Q35.5125 305.39166 35.2 305.62604Q34.8875 305.8604 34.7 306.2823Q34.528126 306.68854 34.465626 307.2354Q34.403126 307.7823 34.403126 308.4229Q34.403126 309.26666 34.48125 309.8604Q34.575 310.45416 34.7625 310.82916Q34.965626 311.20416 35.2625 311.37604Q35.559376 311.5479 35.98125 311.5479Q36.309376 311.5479 36.54375 311.45416Q36.79375 311.3448 36.965626 311.1573Q37.153126 310.95416 37.2625 310.6729Q37.3875 310.39166 37.45 310.06354Q37.528126 309.7354 37.559376 309.3448Q37.590626 308.95416 37.590626 308.5323ZM44.621876 308.45416Q44.621876 309.32916 44.48125 310.0479Q44.340626 310.76666 44.0125 311.2979Q43.7 311.81354 43.184376 312.0948Q42.66875 312.37604 41.91875 312.37604Q41.2 312.37604 40.7 312.12604Q40.215626 311.8604 39.91875 311.37604Q39.621876 310.87604 39.496876 310.1573Q39.371876 309.4229 39.371876 308.4854Q39.371876 307.62604 39.5125 306.9073Q39.653126 306.1729 39.965626 305.6573Q40.29375 305.14166 40.809376 304.8604Q41.325 304.57916 42.075 304.57916Q42.79375 304.57916 43.278126 304.82916Q43.7625 305.07916 44.059376 305.57916Q44.371876 306.07916 44.496876 306.7979Q44.621876 307.51666 44.621876 308.45416ZM43.590626 308.5323Q43.590626 307.95416 43.54375 307.51666Q43.496876 307.06354 43.41875 306.7198Q43.340626 306.3604 43.215626 306.1104Q43.090626 305.8604 42.91875 305.70416Q42.746876 305.5479 42.5125 305.4698Q42.29375 305.39166 42.0125 305.39166Q41.5125 305.39166 41.2 305.62604Q40.8875 305.8604 40.7 306.2823Q40.528126 306.68854 40.465626 307.2354Q40.403126 307.7823 40.403126 308.4229Q40.403126 309.26666 40.48125 309.8604Q40.575 310.45416 40.7625 310.82916Q40.965626 311.20416 41.2625 311.37604Q41.559376 311.5479 41.98125 311.5479Q42.309376 311.5479 42.54375 311.45416Q42.79375 311.3448 42.965626 311.1573Q43.153126 310.95416 43.2625 310.6729Q43.3875 310.39166 43.45 310.06354Q43.528126 309.7354 43.559376 309.3448Q43.590626 308.95416 43.590626 308.5323ZM50.621876 308.45416Q50.621876 309.32916 50.48125 310.0479Q50.340626 310.76666 50.0125 311.2979Q49.7 311.81354 49.184376 312.0948Q48.66875 312.37604 47.91875 312.37604Q47.2 312.37604 46.7 312.12604Q46.215626 311.8604 45.91875 311.37604Q45.621876 310.87604 45.496876 310.1573Q45.371876 309.4229 45.371876 308.4854Q45.371876 307.62604 45.5125 306.9073Q45.653126 306.1729 45.965626 305.6573Q46.29375 305.14166 46.809376 304.8604Q47.325 304.57916 48.075 304.57916Q48.79375 304.57916 49.278126 304.82916Q49.7625 305.07916 50.059376 305.57916Q50.371876 306.07916 50.496876 306.7979Q50.621876 307.51666 50.621876 308.45416ZM49.590626 308.5323Q49.590626 307.95416 49.54375 307.51666Q49.496876 307.06354 49.41875 306.7198Q49.340626 306.3604 49.215626 306.1104Q49.090626 305.8604 48.91875 305.70416Q48.746876 305.5479 48.5125 305.4698Q48.29375 305.39166 48.0125 305.39166Q47.5125 305.39166 47.2 305.62604Q46.8875 305.8604 46.7 306.2823Q46.528126 306.68854 46.465626 307.2354Q46.403126 307.7823 46.403126 308.4229Q46.403126 309.26666 46.48125 309.8604Q46.575 310.45416 46.7625 310.82916Q46.965626 311.20416 47.2625 311.37604Q47.559376 311.5479 47.98125 311.5479Q48.309376 311.5479 48.54375 311.45416Q48.79375 311.3448 48.965626 311.1573Q49.153126 310.95416 49.2625 310.6729Q49.3875 310.39166 49.45 310.06354Q49.528126 309.7354 49.559376 309.3448Q49.590626 308.95416 49.590626 308.5323Z" fill-rule="nonzero"/><path fill="#000000" d="M26.3875 229.07709Q26.3875 229.20209 26.35625 229.28021Q26.340626 229.34271 26.309376 229.38959Q26.29375 229.43646 26.246876 229.46771Q26.215626 229.48334 26.16875 229.48334L22.215626 229.48334Q22.16875 229.48334 22.1375 229.46771Q22.10625 229.43646 22.059376 229.38959Q22.028126 229.34271 22.0125 229.28021Q21.996876 229.20209 21.996876 229.07709Q21.996876 228.98334 22.0125 228.90521Q22.028126 228.82709 22.059376 228.78021Q22.090626 228.73334 22.121876 228.70209Q22.16875 228.67084 22.215626 228.67084L23.79375 228.67084L23.79375 222.90521L22.325 223.78021Q22.215626 223.84271 22.1375 223.85834Q22.075 223.85834 22.028126 223.82709Q21.996876 223.78021 21.98125 223.70209Q21.965626 223.60834 21.965626 223.48334Q21.965626 223.37396 21.965626 223.31146Q21.98125 223.23334 21.996876 223.18646Q22.028126 223.13959 22.059376 223.10834Q22.090626 223.07709 22.1375 223.03021L23.8875 221.92084Q23.903126 221.90521 23.934376 221.88959Q23.98125 221.87396 24.028126 221.87396Q24.090626 221.85834 24.153126 221.85834Q24.23125 221.84271 24.325 221.84271Q24.465626 221.84271 24.559376 221.85834Q24.653126 221.87396 24.7 221.88959Q24.7625 221.90521 24.778126 221.95209Q24.79375 221.98334 24.79375 222.01459L24.79375 228.67084L26.16875 228.67084Q26.215626 228.67084 26.246876 228.70209Q26.29375 228.73334 26.325 228.78021Q26.35625 228.82709 26.371876 228.90521Q26.3875 228.98334 26.3875 229.07709ZM32.621876 225.67084Q32.621876 226.54584 32.48125 227.26459Q32.340626 227.98334 32.0125 228.51459Q31.7 229.03021 31.184376 229.31146Q30.66875 229.59271 29.91875 229.59271Q29.2 229.59271 28.7 229.34271Q28.215626 229.07709 27.91875 228.59271Q27.621876 228.09271 27.496876 227.37396Q27.371876 226.63959 27.371876 225.70209Q27.371876 224.84271 27.5125 224.12396Q27.653126 223.38959 27.965626 222.87396Q28.29375 222.35834 28.809376 222.07709Q29.325 221.79584 30.075 221.79584Q30.79375 221.79584 31.278126 222.04584Q31.7625 222.29584 32.059376 222.79584Q32.371876 223.29584 32.496876 224.01459Q32.621876 224.73334 32.621876 225.67084ZM31.590626 225.74896Q31.590626 225.17084 31.54375 224.73334Q31.496876 224.28021 31.41875 223.93646Q31.340626 223.57709 31.215626 223.32709Q31.090626 223.07709 30.91875 222.92084Q30.746876 222.76459 30.5125 222.68646Q30.29375 222.60834 30.0125 222.60834Q29.5125 222.60834 29.2 222.84271Q28.8875 223.07709 28.7 223.49896Q28.528126 223.90521 28.465626 224.45209Q28.403126 224.99896 28.403126 225.63959Q28.403126 226.48334 28.48125 227.07709Q28.575 227.67084 28.7625 228.04584Q28.965626 228.42084 29.2625 228.59271Q29.559376 228.76459 29.98125 228.76459Q30.309376 228.76459 30.54375 228.67084Q30.79375 228.56146 30.965626 228.37396Q31.153126 228.17084 31.2625 227.88959Q31.3875 227.60834 31.45 227.28021Q31.528126 226.95209 31.559376 226.56146Q31.590626 226.17084 31.590626 225.74896ZM38.621876 225.67084Q38.621876 226.54584 38.48125 227.26459Q38.340626 227.98334 38.0125 228.51459Q37.7 229.03021 37.184376 229.31146Q36.66875 229.59271 35.91875 229.59271Q35.2 229.59271 34.7 229.34271Q34.215626 229.07709 33.91875 228.59271Q33.621876 228.09271 33.496876 227.37396Q33.371876 226.63959 33.371876 225.70209Q33.371876 224.84271 33.5125 224.12396Q33.653126 223.38959 33.965626 222.87396Q34.29375 222.35834 34.809376 222.07709Q35.325 221.79584 36.075 221.79584Q36.79375 221.79584 37.278126 222.04584Q37.7625 222.29584 38.059376 222.79584Q38.371876 223.29584 38.496876 224.01459Q38.621876 224.73334 38.621876 225.67084ZM37.590626 225.74896Q37.590626 225.17084 37.54375 224.73334Q37.496876 224.28021 37.41875 223.93646Q37.340626 223.57709 37.215626 223.32709Q37.090626 223.07709 36.91875 222.92084Q36.746876 222.76459 36.5125 222.68646Q36.29375 222.60834 36.0125 222.60834Q35.5125 222.60834 35.2 222.84271Q34.8875 223.07709 34.7 223.49896Q34.528126 223.90521 34.465626 224.45209Q34.403126 224.99896 34.403126 225.63959Q34.403126 226.48334 34.48125 227.07709Q34.575 227.67084 34.7625 228.04584Q34.965626 228.42084 35.2625 228.59271Q35.559376 228.76459 35.98125 228.76459Q36.309376 228.76459 36.54375 228.67084Q36.79375 228.56146 36.965626 228.37396Q37.153126 228.17084 37.2625 227.88959Q37.3875 227.60834 37.45 227.28021Q37.528126 226.95209 37.559376 226.56146Q37.590626 226.17084 37.590626 225.74896ZM44.621876 225.67084Q44.621876 226.54584 44.48125 227.26459Q44.340626 227.98334 44.0125 228.51459Q43.7 229.03021 43.184376 229.31146Q42.66875 229.59271 41.91875 229.59271Q41.2 229.59271 40.7 229.34271Q40.215626 229.07709 39.91875 228.59271Q39.621876 228.09271 39.496876 227.37396Q39.371876 226.63959 39.371876 225.70209Q39.371876 224.84271 39.5125 224.12396Q39.653126 223.38959 39.965626 222.87396Q40.29375 222.35834 40.809376 222.07709Q41.325 221.79584 42.075 221.79584Q42.79375 221.79584 43.278126 222.04584Q43.7625 222.29584 44.059376 222.79584Q44.371876 223.29584 44.496876 224.01459Q44.621876 224.73334 44.621876 225.67084ZM43.590626 225.74896Q43.590626 225.17084 43.54375 224.73334Q43.496876 224.28021 43.41875 223.93646Q43.340626 223.57709 43.215626 223.32709Q43.090626 223.07709 42.91875 222.92084Q42.746876 222.76459 42.5125 222.68646Q42.29375 222.60834 42.0125 222.60834Q41.5125 222.60834 41.2 222.84271Q40.8875 223.07709 40.7 223.49896Q40.528126 223.90521 40.465626 224.45209Q40.403126 224.99896 40.403126 225.63959Q40.403126 226.48334 40.48125 227.07709Q40.575 227.67084 40.7625 228.04584Q40.965626 228.42084 41.2625 228.59271Q41.559376 228.76459 41.98125 228.76459Q42.309376 228.76459 42.54375 228.67084Q42.79375 228.56146 42.965626 228.37396Q43.153126 228.17084 43.2625 227.88959Q43.3875 227.60834 43.45 227.28021Q43.528126 226.95209 43.559376 226.56146Q43.590626 226.17084 43.590626 225.74896ZM50.621876 225.67084Q50.621876 226.54584 50.48125 227.26459Q50.340626 227.98334 50.0125 228.51459Q49.7 229.03021 49.184376 229.31146Q48.66875 229.59271 47.91875 229.59271Q47.2 229.59271 46.7 229.34271Q46.215626 229.07709 45.91875 228.59271Q45.621876 228.09271 45.496876 227.37396Q45.371876 226.63959 45.371876 225.70209Q45.371876 224.84271 45.5125 224.12396Q45.653126 223.38959 45.965626 222.87396Q46.29375 222.35834 46.809376 222.07709Q47.325 221.79584 48.075 221.79584Q48.79375 221.79584 49.278126 222.04584Q49.7625 222.29584 50.059376 222.79584Q50.371876 223.29584 50.496876 224.01459Q50.621876 224.73334 50.621876 225.67084ZM49.590626 225.74896Q49.590626 225.17084 49.54375 224.73334Q49.496876 224.28021 49.41875 223.93646Q49.340626 223.57709 49.215626 223.32709Q49.090626 223.07709 48.91875 222.92084Q48.746876 222.76459 48.5125 222.68646Q48.29375 222.60834 48.0125 222.60834Q47.5125 222.60834 47.2 222.84271Q46.8875 223.07709 46.7 223.49896Q46.528126 223.90521 46.465626 224.45209Q46.403126 224.99896 46.403126 225.63959Q46.403126 226.48334 46.48125 227.07709Q46.575 227.67084 46.7625 228.04584Q46.965626 228.42084 47.2625 228.59271Q47.559376 228.76459 47.98125 228.76459Q48.309376 228.76459 48.54375 228.67084Q48.79375 228.56146 48.965626 228.37396Q49.153126 228.17084 49.2625 227.88959Q49.3875 227.60834 49.45 227.28021Q49.528126 226.95209 49.559376 226.56146Q49.590626 226.17084 49.590626 225.74896Z" fill-rule="nonzero"/><path fill="#000000" d="M26.3875 146.29375Q26.3875 146.41875 26.35625 146.49687Q26.340626 146.55937 26.309376 146.60625Q26.29375 146.65312 26.246876 146.68437Q26.215626 146.7 26.16875 146.7L22.215626 146.7Q22.16875 146.7 22.1375 146.68437Q22.10625 146.65312 22.059376 146.60625Q22.028126 146.55937 22.0125 146.49687Q21.996876 146.41875 21.996876 146.29375Q21.996876 146.2 22.0125 146.12187Q22.028126 146.04375 22.059376 145.99687Q22.090626 145.95 22.121876 145.91875Q22.16875 145.8875 22.215626 145.8875L23.79375 145.8875L23.79375 140.12187L22.325 140.99687Q22.215626 141.05937 22.1375 141.075Q22.075 141.075 22.028126 141.04375Q21.996876 140.99687 21.98125 140.91875Q21.965626 140.825 21.965626 140.7Q21.965626 140.59062 21.965626 140.52812Q21.98125 140.45 21.996876 140.40312Q22.028126 140.35625 22.059376 140.325Q22.090626 140.29375 22.1375 140.24687L23.8875 139.1375Q23.903126 139.12187 23.934376 139.10625Q23.98125 139.09062 24.028126 139.09062Q24.090626 139.075 24.153126 139.075Q24.23125 139.05937 24.325 139.05937Q24.465626 139.05937 24.559376 139.075Q24.653126 139.09062 24.7 139.10625Q24.7625 139.12187 24.778126 139.16875Q24.79375 139.2 24.79375 139.23125L24.79375 145.8875L26.16875 145.8875Q26.215626 145.8875 26.246876 145.91875Q26.29375 145.95 26.325 145.99687Q26.35625 146.04375 26.371876 146.12187Q26.3875 146.2 26.3875 146.29375ZM32.325 144.2625Q32.325 144.87187 32.121876 145.35625Q31.91875 145.825 31.54375 146.15312Q31.16875 146.46562 30.653126 146.6375Q30.1375 146.80937 29.496876 146.80937Q29.153126 146.80937 28.825 146.7625Q28.5125 146.71562 28.2625 146.6375Q28.028126 146.55937 27.85625 146.49687Q27.7 146.41875 27.653126 146.3875Q27.621876 146.34062 27.60625 146.30937Q27.590626 146.27812 27.575 146.23125Q27.559376 146.16875 27.54375 146.09062Q27.54375 146.0125 27.54375 145.91875Q27.54375 145.80937 27.54375 145.73125Q27.559376 145.65312 27.575 145.60625Q27.60625 145.55937 27.6375 145.54375Q27.66875 145.5125 27.715626 145.5125Q27.778126 145.5125 27.8875 145.59062Q28.0125 145.65312 28.215626 145.74687Q28.434376 145.825 28.73125 145.90312Q29.04375 145.98125 29.465626 145.98125Q29.85625 145.98125 30.184376 145.8875Q30.5125 145.79375 30.746876 145.59062Q30.996876 145.3875 31.121876 145.09062Q31.2625 144.79375 31.2625 144.35625Q31.2625 143.99687 31.1375 143.71562Q31.028126 143.43437 30.79375 143.24687Q30.559376 143.05937 30.2 142.98125Q29.840626 142.8875 29.325 142.8875Q28.965626 142.8875 28.7 142.91875Q28.45 142.95 28.23125 142.95Q28.075 142.95 27.996876 142.8875Q27.934376 142.80937 27.934376 142.59062L27.934376 139.49687Q27.934376 139.30937 28.0125 139.21562Q28.10625 139.12187 28.278126 139.12187L31.6375 139.12187Q31.684376 139.12187 31.73125 139.15312Q31.778126 139.16875 31.79375 139.23125Q31.825 139.27812 31.840626 139.35625Q31.85625 139.43437 31.85625 139.54375Q31.85625 139.7625 31.79375 139.8875Q31.746876 139.99687 31.6375 139.99687L28.809376 139.99687L28.809376 142.12187Q29.0125 142.09062 29.215626 142.09062Q29.434376 142.075 29.715626 142.075Q30.371876 142.075 30.85625 142.23125Q31.340626 142.3875 31.66875 142.68437Q31.996876 142.96562 32.153126 143.37187Q32.325 143.7625 32.325 144.2625ZM38.621876 142.8875Q38.621876 143.7625 38.48125 144.48125Q38.340626 145.2 38.0125 145.73125Q37.7 146.24687 37.184376 146.52812Q36.66875 146.80937 35.91875 146.80937Q35.2 146.80937 34.7 146.55937Q34.215626 146.29375 33.91875 145.80937Q33.621876 145.30937 33.496876 144.59062Q33.371876 143.85625 33.371876 142.91875Q33.371876 142.05937 33.5125 141.34062Q33.653126 140.60625 33.965626 140.09062Q34.29375 139.575 34.809376 139.29375Q35.325 139.0125 36.075 139.0125Q36.79375 139.0125 37.278126 139.2625Q37.7625 139.5125 38.059376 140.0125Q38.371876 140.5125 38.496876 141.23125Q38.621876 141.95 38.621876 142.8875ZM37.590626 142.96562Q37.590626 142.3875 37.54375 141.95Q37.496876 141.49687 37.41875 141.15312Q37.340626 140.79375 37.215626 140.54375Q37.090626 140.29375 36.91875 140.1375Q36.746876 139.98125 36.5125 139.90312Q36.29375 139.825 36.0125 139.825Q35.5125 139.825 35.2 140.05937Q34.8875 140.29375 34.7 140.71562Q34.528126 141.12187 34.465626 141.66875Q34.403126 142.21562 34.403126 142.85625Q34.403126 143.7 34.48125 144.29375Q34.575 144.8875 34.7625 145.2625Q34.965626 145.6375 35.2625 145.80937Q35.559376 145.98125 35.98125 145.98125Q36.309376 145.98125 36.54375 145.8875Q36.79375 145.77812 36.965626 145.59062Q37.153126 145.3875 37.2625 145.10625Q37.3875 144.825 37.45 144.49687Q37.528126 144.16875 37.559376 143.77812Q37.590626 143.3875 37.590626 142.96562ZM44.621876 142.8875Q44.621876 143.7625 44.48125 144.48125Q44.340626 145.2 44.0125 145.73125Q43.7 146.24687 43.184376 146.52812Q42.66875 146.80937 41.91875 146.80937Q41.2 146.80937 40.7 146.55937Q40.215626 146.29375 39.91875 145.80937Q39.621876 145.30937 39.496876 144.59062Q39.371876 143.85625 39.371876 142.91875Q39.371876 142.05937 39.5125 141.34062Q39.653126 140.60625 39.965626 140.09062Q40.29375 139.575 40.809376 139.29375Q41.325 139.0125 42.075 139.0125Q42.79375 139.0125 43.278126 139.2625Q43.7625 139.5125 44.059376 140.0125Q44.371876 140.5125 44.496876 141.23125Q44.621876 141.95 44.621876 142.8875ZM43.590626 142.96562Q43.590626 142.3875 43.54375 141.95Q43.496876 141.49687 43.41875 141.15312Q43.340626 140.79375 43.215626 140.54375Q43.090626 140.29375 42.91875 140.1375Q42.746876 139.98125 42.5125 139.90312Q42.29375 139.825 42.0125 139.825Q41.5125 139.825 41.2 140.05937Q40.8875 140.29375 40.7 140.71562Q40.528126 141.12187 40.465626 141.66875Q40.403126 142.21562 40.403126 142.85625Q40.403126 143.7 40.48125 144.29375Q40.575 144.8875 40.7625 145.2625Q40.965626 145.6375 41.2625 145.80937Q41.559376 145.98125 41.98125 145.98125Q42.309376 145.98125 42.54375 145.8875Q42.79375 145.77812 42.965626 145.59062Q43.153126 145.3875 43.2625 145.10625Q43.3875 144.825 43.45 144.49687Q43.528126 144.16875 43.559376 143.77812Q43.590626 143.3875 43.590626 142.96562ZM50.621876 142.8875Q50.621876 143.7625 50.48125 144.48125Q50.340626 145.2 50.0125 145.73125Q49.7 146.24687 49.184376 146.52812Q48.66875 146.80937 47.91875 146.80937Q47.2 146.80937 46.7 146.55937Q46.215626 146.29375 45.91875 145.80937Q45.621876 145.30937 45.496876 144.59062Q45.371876 143.85625 45.371876 142.91875Q45.371876 142.05937 45.5125 141.34062Q45.653126 140.60625 45.965626 140.09062Q46.29375 139.575 46.809376 139.29375Q47.325 139.0125 48.075 139.0125Q48.79375 139.0125 49.278126 139.2625Q49.7625 139.5125 50.059376 140.0125Q50.371876 140.5125 50.496876 141.23125Q50.621876 141.95 50.621876 142.8875ZM49.590626 142.96562Q49.590626 142.3875 49.54375 141.95Q49.496876 141.49687 49.41875 141.15312Q49.340626 140.79375 49.215626 140.54375Q49.090626 140.29375 48.91875 140.1375Q48.746876 139.98125 48.5125 139.90312Q48.29375 139.825 48.0125 139.825Q47.5125 139.825 47.2 140.05937Q46.8875 140.29375 46.7 140.71562Q46.528126 141.12187 46.465626 141.66875Q46.403126 142.21562 46.403126 142.85625Q46.403126 143.7 46.48125 144.29375Q46.575 144.8875 46.7625 145.2625Q46.965626 145.6375 47.2625 145.80937Q47.559376 145.98125 47.98125 145.98125Q48.309376 145.98125 48.54375 145.8875Q48.79375 145.77812 48.965626 145.59062Q49.153126 145.3875 49.2625 145.10625Q49.3875 144.825 49.45 144.49687Q49.528126 144.16875 49.559376 143.77812Q49.590626 143.3875 49.590626 142.96562Z" fill-rule="nonzero"/><path fill="#000000" d="M26.371876 63.479168Q26.371876 63.588543 26.35625 63.666668Q26.340626 63.744793 26.309376 63.807293Q26.278126 63.869793 26.23125 63.901043Q26.2 63.916668 26.1375 63.916668L21.95 63.916668Q21.871876 63.916668 21.809376 63.901043Q21.746876 63.869793 21.7 63.822918Q21.653126 63.776043 21.6375 63.697918Q21.621876 63.604168 21.621876 63.479168Q21.621876 63.354168 21.621876 63.276043Q21.6375 63.182293 21.66875 63.119793Q21.7 63.041668 21.73125 62.979168Q21.778126 62.916668 21.85625 62.838543L23.325 61.276043Q23.840626 60.744793 24.1375 60.322918Q24.45 59.885418 24.60625 59.541668Q24.778126 59.182293 24.825 58.901043Q24.8875 58.604168 24.8875 58.354168Q24.8875 58.104168 24.809376 57.885418Q24.73125 57.651043 24.575 57.479168Q24.41875 57.307293 24.184376 57.213543Q23.95 57.119793 23.6375 57.119793Q23.278126 57.119793 22.996876 57.213543Q22.715626 57.307293 22.496876 57.432293Q22.29375 57.541668 22.1375 57.651043Q21.996876 57.744793 21.934376 57.744793Q21.8875 57.744793 21.85625 57.729168Q21.825 57.697918 21.79375 57.651043Q21.778126 57.588543 21.7625 57.510418Q21.7625 57.416668 21.7625 57.291668Q21.7625 57.213543 21.7625 57.151043Q21.778126 57.072918 21.778126 57.026043Q21.79375 56.979168 21.809376 56.947918Q21.840626 56.901043 21.903126 56.838543Q21.98125 56.776043 22.153126 56.682293Q22.340626 56.572918 22.590626 56.479168Q22.85625 56.369793 23.16875 56.307293Q23.48125 56.229168 23.825 56.229168Q24.371876 56.229168 24.778126 56.385418Q25.2 56.526043 25.465626 56.807293Q25.746876 57.072918 25.871876 57.432293Q26.0125 57.791668 26.0125 58.197918Q26.0125 58.557293 25.95 58.916668Q25.8875 59.276043 25.684376 59.697918Q25.48125 60.119793 25.075 60.635418Q24.684376 61.135418 24.04375 61.807293L22.840626 63.057293L26.1375 63.057293Q26.184376 63.057293 26.23125 63.088543Q26.278126 63.119793 26.309376 63.166668Q26.340626 63.213543 26.35625 63.291668Q26.371876 63.369793 26.371876 63.479168ZM32.621876 60.104168Q32.621876 60.979168 32.48125 61.697918Q32.340626 62.416668 32.0125 62.947918Q31.7 63.463543 31.184376 63.744793Q30.66875 64.02605 29.91875 64.02605Q29.2 64.02605 28.7 63.776043Q28.215626 63.510418 27.91875 63.026043Q27.621876 62.526043 27.496876 61.807293Q27.371876 61.072918 27.371876 60.135418Q27.371876 59.276043 27.5125 58.557293Q27.653126 57.822918 27.965626 57.307293Q28.29375 56.791668 28.809376 56.510418Q29.325 56.229168 30.075 56.229168Q30.79375 56.229168 31.278126 56.479168Q31.7625 56.729168 32.059376 57.229168Q32.371876 57.729168 32.496876 58.447918Q32.621876 59.166668 32.621876 60.104168ZM31.590626 60.182293Q31.590626 59.604168 31.54375 59.166668Q31.496876 58.713543 31.41875 58.369793Q31.340626 58.010418 31.215626 57.760418Q31.090626 57.510418 30.91875 57.354168Q30.746876 57.197918 30.5125 57.119793Q30.29375 57.041668 30.0125 57.041668Q29.5125 57.041668 29.2 57.276043Q28.8875 57.510418 28.7 57.932293Q28.528126 58.338543 28.465626 58.885418Q28.403126 59.432293 28.403126 60.072918Q28.403126 60.916668 28.48125 61.510418Q28.575 62.104168 28.7625 62.479168Q28.965626 62.854168 29.2625 63.026043Q29.559376 63.197918 29.98125 63.197918Q30.309376 63.197918 30.54375 63.104168Q30.79375 62.994793 30.965626 62.807293Q31.153126 62.604168 31.2625 62.322918Q31.3875 62.041668 31.45 61.713543Q31.528126 61.385418 31.559376 60.994793Q31.590626 60.604168 31.590626 60.182293ZM38.621876 60.104168Q38.621876 60.979168 38.48125 61.697918Q38.340626 62.416668 38.0125 62.947918Q37.7 63.463543 37.184376 63.744793Q36.66875 64.02605 35.91875 64.02605Q35.2 64.02605 34.7 63.776043Q34.215626 63.510418 33.91875 63.026043Q33.621876 62.526043 33.496876 61.807293Q33.371876 61.072918 33.371876 60.135418Q33.371876 59.276043 33.5125 58.557293Q33.653126 57.822918 33.965626 57.307293Q34.29375 56.791668 34.809376 56.510418Q35.325 56.229168 36.075 56.229168Q36.79375 56.229168 37.278126 56.479168Q37.7625 56.729168 38.059376 57.229168Q38.371876 57.729168 38.496876 58.447918Q38.621876 59.166668 38.621876 60.104168ZM37.590626 60.182293Q37.590626 59.604168 37.54375 59.166668Q37.496876 58.713543 37.41875 58.369793Q37.340626 58.010418 37.215626 57.760418Q37.090626 57.510418 36.91875 57.354168Q36.746876 57.197918 36.5125 57.119793Q36.29375 57.041668 36.0125 57.041668Q35.5125 57.041668 35.2 57.276043Q34.8875 57.510418 34.7 57.932293Q34.528126 58.338543 34.465626 58.885418Q34.403126 59.432293 34.403126 60.072918Q34.403126 60.916668 34.48125 61.510418Q34.575 62.104168 34.7625 62.479168Q34.965626 62.854168 35.2625 63.026043Q35.559376 63.197918 35.98125 63.197918Q36.309376 63.197918 36.54375 63.104168Q36.79375 62.994793 36.965626 62.807293Q37.153126 62.604168 37.2625 62.322918Q37.3875 62.041668 37.45 61.713543Q37.528126 61.385418 37.559376 60.994793Q37.590626 60.604168 37.590626 60.182293ZM44.621876 60.104168Q44.621876 60.979168 44.48125 61.697918Q44.340626 62.416668 44.0125 62.947918Q43.7 63.463543 43.184376 63.744793Q42.66875 64.02605 41.91875 64.02605Q41.2 64.02605 40.7 63.776043Q40.215626 63.510418 39.91875 63.026043Q39.621876 62.526043 39.496876 61.807293Q39.371876 61.072918 39.371876 60.135418Q39.371876 59.276043 39.5125 58.557293Q39.653126 57.822918 39.965626 57.307293Q40.29375 56.791668 40.809376 56.510418Q41.325 56.229168 42.075 56.229168Q42.79375 56.229168 43.278126 56.479168Q43.7625 56.729168 44.059376 57.229168Q44.371876 57.729168 44.496876 58.447918Q44.621876 59.166668 44.621876 60.104168ZM43.590626 60.182293Q43.590626 59.604168 43.54375 59.166668Q43.496876 58.713543 43.41875 58.369793Q43.340626 58.010418 43.215626 57.760418Q43.090626 57.510418 42.91875 57.354168Q42.746876 57.197918 42.5125 57.119793Q42.29375 57.041668 42.0125 57.041668Q41.5125 57.041668 41.2 57.276043Q40.8875 57.510418 40.7 57.932293Q40.528126 58.338543 40.465626 58.885418Q40.403126 59.432293 40.403126 60.072918Q40.403126 60.916668 40.48125 61.510418Q40.575 62.104168 40.7625 62.479168Q40.965626 62.854168 41.2625 63.026043Q41.559376 63.197918 41.98125 63.197918Q42.309376 63.197918 42.54375 63.104168Q42.79375 62.994793 42.965626 62.807293Q43.153126 62.604168 43.2625 62.322918Q43.3875 62.041668 43.45 61.713543Q43.528126 61.385418 43.559376 60.994793Q43.590626 60.604168 43.590626 60.182293ZM50.621876 60.104168Q50.621876 60.979168 50.48125 61.697918Q50.340626 62.416668 50.0125 62.947918Q49.7 63.463543 49.184376 63.744793Q48.66875 64.02605 47.91875 64.02605Q47.2 64.02605 46.7 63.776043Q46.215626 63.510418 45.91875 63.026043Q45.621876 62.526043 45.496876 61.807293Q45.371876 61.072918 45.371876 60.135418Q45.371876 59.276043 45.5125 58.557293Q45.653126 57.822918 45.965626 57.307293Q46.29375 56.791668 46.809376 56.510418Q47.325 56.229168 48.075 56.229168Q48.79375 56.229168 49.278126 56.479168Q49.7625 56.729168 50.059376 57.229168Q50.371876 57.729168 50.496876 58.447918Q50.621876 59.166668 50.621876 60.104168ZM49.590626 60.182293Q49.590626 59.604168 49.54375 59.166668Q49.496876 58.713543 49.41875 58.369793Q49.340626 58.010418 49.215626 57.760418Q49.090626 57.510418 48.91875 57.354168Q48.746876 57.197918 48.5125 57.119793Q48.29375 57.041668 48.0125 57.041668Q47.5125 57.041668 47.2 57.276043Q46.8875 57.510418 46.7 57.932293Q46.528126 58.338543 46.465626 58.885418Q46.403126 59.432293 46.403126 60.072918Q46.403126 60.916668 46.48125 61.510418Q46.575 62.104168 46.7625 62.479168Q46.965626 62.854168 47.2625 63.026043Q47.559376 63.197918 47.98125 63.197918Q48.309376 63.197918 48.54375 63.104168Q48.79375 62.994793 48.965626 62.807293Q49.153126 62.604168 49.2625 62.322918Q49.3875 62.041668 49.45 61.713543Q49.528126 61.385418 49.559376 60.994793Q49.590626 60.604168 49.590626 60.182293Z" fill-rule="nonzero"/><path fill="#757575" d="M443.125 34.16875Q443.125 34.325 443.10938 34.45Q443.09375 34.559376 443.0625 34.653126Q443.04688 34.73125 443.0 34.809376Q442.96875 34.871876 442.875 34.965626Q442.78125 35.059376 442.46875 35.2625Q442.15625 35.465626 441.6875 35.653126Q441.21875 35.840626 440.60938 35.965626Q440.01562 36.10625 439.3125 36.10625Q438.07812 36.10625 437.07812 35.7Q436.09375 35.278126 435.39062 34.48125Q434.70312 33.684376 434.32812 32.5125Q433.95312 31.325 433.95312 29.79375Q433.95312 28.23125 434.35938 26.996876Q434.76562 25.7625 435.48438 24.91875Q436.21875 24.059376 437.23438 23.60625Q438.26562 23.153126 439.5 23.153126Q440.04688 23.153126 440.5625 23.2625Q441.09375 23.35625 441.53125 23.5125Q441.96875 23.66875 442.3125 23.8875Q442.65625 24.090626 442.78125 24.215626Q442.90625 24.340626 442.9375 24.41875Q442.98438 24.48125 443.01562 24.575Q443.04688 24.66875 443.04688 24.79375Q443.0625 24.91875 443.0625 25.10625Q443.0625 25.29375 443.04688 25.434376Q443.03125 25.575 442.98438 25.66875Q442.95312 25.746876 442.89062 25.79375Q442.84375 25.840626 442.76562 25.840626Q442.625 25.840626 442.375 25.653126Q442.14062 25.465626 441.75 25.23125Q441.375 24.996876 440.8125 24.809376Q440.26562 24.621876 439.5 24.621876Q438.65625 24.621876 437.96875 24.965626Q437.28125 25.29375 436.78125 25.95Q436.29688 26.60625 436.03125 27.54375Q435.76562 28.48125 435.76562 29.7Q435.76562 30.903126 436.01562 31.825Q436.28125 32.746876 436.76562 33.371876Q437.25 33.98125 437.95312 34.309376Q438.65625 34.621876 439.54688 34.621876Q440.29688 34.621876 440.85938 34.434376Q441.42188 34.246876 441.8125 34.028126Q442.20312 33.79375 442.45312 33.60625Q442.71875 33.41875 442.85938 33.41875Q442.9375 33.41875 442.98438 33.45Q443.03125 33.48125 443.0625 33.559376Q443.09375 33.6375 443.10938 33.79375Q443.125 33.934376 443.125 34.16875ZM453.03125 35.7Q453.03125 35.778126 452.98438 35.840626Q452.95312 35.8875 452.85938 35.934376Q452.78125 35.965626 452.64062 35.98125Q452.5 36.0125 452.29688 36.0125Q452.0625 36.0125 451.92188 35.98125Q451.78125 35.965626 451.70312 35.934376Q451.625 35.8875 451.59375 35.840626Q451.5625 35.778126 451.5625 35.7L451.5625 34.54375Q450.8125 35.371876 450.07812 35.7625Q449.34375 36.1375 448.59375 36.1375Q447.71875 36.1375 447.10938 35.840626Q446.51562 35.54375 446.14062 35.04375Q445.76562 34.54375 445.60938 33.871876Q445.45312 33.2 445.45312 32.246876L445.45312 26.91875Q445.45312 26.840626 445.48438 26.79375Q445.51562 26.73125 445.60938 26.684376Q445.70312 26.6375 445.85938 26.621876Q446.01562 26.60625 446.25 26.60625Q446.48438 26.60625 446.64062 26.621876Q446.79688 26.6375 446.89062 26.684376Q446.98438 26.73125 447.01562 26.79375Q447.0625 26.840626 447.0625 26.91875L447.0625 32.028126Q447.0625 32.809376 447.17188 33.278126Q447.29688 33.73125 447.51562 34.059376Q447.75 34.3875 448.09375 34.575Q448.45312 34.746876 448.92188 34.746876Q449.53125 34.746876 450.125 34.325Q450.73438 33.8875 451.40625 33.059376L451.40625 26.91875Q451.40625 26.840626 451.4375 26.79375Q451.46875 26.73125 451.5625 26.684376Q451.67188 26.6375 451.8125 26.621876Q451.96875 26.60625 452.21875 26.60625Q452.45312 26.60625 452.60938 26.621876Q452.76562 26.6375 452.84375 26.684376Q452.9375 26.73125 452.98438 26.79375Q453.03125 26.840626 453.03125 26.91875L453.03125 35.7ZM469.53125 35.7Q469.53125 35.778126 469.48438 35.840626Q469.45312 35.8875 469.35938 35.934376Q469.28125 35.965626 469.125 35.98125Q468.96875 36.0125 468.73438 36.0125Q468.48438 36.0125 468.32812 35.98125Q468.17188 35.965626 468.07812 35.934376Q467.98438 35.8875 467.9375 35.840626Q467.90625 35.778126 467.90625 35.7L467.90625 30.35625Q467.90625 29.809376 467.8125 29.35625Q467.71875 28.8875 467.5 28.559376Q467.28125 28.23125 466.95312 28.059376Q466.625 27.871876 466.17188 27.871876Q465.60938 27.871876 465.04688 28.309376Q464.5 28.73125 463.8125 29.559376L463.8125 35.7Q463.8125 35.778126 463.76562 35.840626Q463.73438 35.8875 463.64062 35.934376Q463.5625 35.965626 463.40625 35.98125Q463.25 36.0125 463.01562 36.0125Q462.78125 36.0125 462.625 35.98125Q462.46875 35.965626 462.375 35.934376Q462.28125 35.8875 462.23438 35.840626Q462.20312 35.778126 462.20312 35.7L462.20312 30.35625Q462.20312 29.809376 462.09375 29.35625Q462.0 28.8875 461.78125 28.559376Q461.5625 28.23125 461.23438 28.059376Q460.90625 27.871876 460.45312 27.871876Q459.90625 27.871876 459.32812 28.309376Q458.76562 28.73125 458.10938 29.559376L458.10938 35.7Q458.10938 35.778126 458.0625 35.840626Q458.03125 35.8875 457.9375 35.934376Q457.85938 35.965626 457.70312 35.98125Q457.54688 36.0125 457.29688 36.0125Q457.0625 36.0125 456.90625 35.98125Q456.75 35.965626 456.65625 35.934376Q456.5625 35.8875 456.53125 35.840626Q456.5 35.778126 456.5 35.7L456.5 26.91875Q456.5 26.840626 456.51562 26.79375Q456.54688 26.73125 456.64062 26.684376Q456.73438 26.6375 456.85938 26.621876Q457.0 26.60625 457.23438 26.60625Q457.4375 26.60625 457.57812 26.621876Q457.71875 26.6375 457.79688 26.684376Q457.875 26.73125 457.90625 26.79375Q457.95312 26.840626 457.95312 26.91875L457.95312 28.075Q458.6875 27.246876 459.39062 26.871876Q460.09375 26.48125 460.79688 26.48125Q461.34375 26.48125 461.78125 26.60625Q462.21875 26.73125 462.54688 26.965626Q462.875 27.184376 463.10938 27.5125Q463.34375 27.825 463.5 28.215626Q463.95312 27.73125 464.34375 27.403126Q464.73438 27.075 465.09375 26.871876Q465.46875 26.66875 465.8125 26.575Q466.15625 26.48125 466.51562 26.48125Q467.35938 26.48125 467.9375 26.778126Q468.51562 27.075 468.875 27.575Q469.23438 28.075 469.375 28.746876Q469.53125 29.403126 469.53125 30.153126L469.53125 35.7ZM480.03125 35.7Q480.03125 35.778126 479.98438 35.840626Q479.95312 35.8875 479.85938 35.934376Q479.78125 35.965626 479.64062 35.98125Q479.5 36.0125 479.29688 36.0125Q479.0625 36.0125 478.92188 35.98125Q478.78125 35.965626 478.70312 35.934376Q478.625 35.8875 478.59375 35.840626Q478.5625 35.778126 478.5625 35.7L478.5625 34.54375Q477.8125 35.371876 477.07812 35.7625Q476.34375 36.1375 475.59375 36.1375Q474.71875 36.1375 474.10938 35.840626Q473.51562 35.54375 473.14062 35.04375Q472.76562 34.54375 472.60938 33.871876Q472.45312 33.2 472.45312 32.246876L472.45312 26.91875Q472.45312 26.840626 472.48438 26.79375Q472.51562 26.73125 472.60938 26.684376Q472.70312 26.6375 472.85938 26.621876Q473.01562 26.60625 473.25 26.60625Q473.48438 26.60625 473.64062 26.621876Q473.79688 26.6375 473.89062 26.684376Q473.98438 26.73125 474.01562 26.79375Q474.0625 26.840626 474.0625 26.91875L474.0625 32.028126Q474.0625 32.809376 474.17188 33.278126Q474.29688 33.73125 474.51562 34.059376Q474.75 34.3875 475.09375 34.575Q475.45312 34.746876 475.92188 34.746876Q476.53125 34.746876 477.125 34.325Q477.73438 33.8875 478.40625 33.059376L478.40625 26.91875Q478.40625 26.840626 478.4375 26.79375Q478.46875 26.73125 478.5625 26.684376Q478.67188 26.6375 478.8125 26.621876Q478.96875 26.60625 479.21875 26.60625Q479.45312 26.60625 479.60938 26.621876Q479.76562 26.6375 479.84375 26.684376Q479.9375 26.73125 479.98438 26.79375Q480.03125 26.840626 480.03125 26.91875L480.03125 35.7ZM485.10938 35.7Q485.10938 35.778126 485.0625 35.840626Q485.03125 35.8875 484.9375 35.934376Q484.85938 35.965626 484.70312 35.98125Q484.54688 36.0125 484.29688 36.0125Q484.0625 36.0125 483.90625 35.98125Q483.75 35.965626 483.65625 35.934376Q483.5625 35.8875 483.53125 35.840626Q483.5 35.778126 483.5 35.7L483.5 22.653126Q483.5 22.575 483.53125 22.528126Q483.5625 22.465626 483.65625 22.434376Q483.75 22.3875 483.90625 22.371876Q484.0625 22.340626 484.29688 22.340626Q484.54688 22.340626 484.70312 22.371876Q484.85938 22.3875 484.9375 22.434376Q485.03125 22.465626 485.0625 22.528126Q485.10938 22.575 485.10938 22.653126L485.10938 35.7ZM495.10938 35.715626Q495.10938 35.825 495.03125 35.8875Q494.95312 35.95 494.8125 35.98125Q494.6875 36.0125 494.42188 36.0125Q494.17188 36.0125 494.01562 35.98125Q493.85938 35.95 493.79688 35.8875Q493.73438 35.825 493.73438 35.715626L493.73438 34.840626Q493.15625 35.45 492.4375 35.79375Q491.73438 36.1375 490.95312 36.1375Q490.25 36.1375 489.6875 35.95Q489.125 35.778126 488.73438 35.434376Q488.34375 35.090626 488.125 34.590626Q487.90625 34.090626 487.90625 33.465626Q487.90625 32.715626 488.20312 32.16875Q488.5 31.621876 489.0625 31.2625Q489.64062 30.903126 490.45312 30.73125Q491.28125 30.54375 492.29688 30.54375L493.51562 30.54375L493.51562 29.85625Q493.51562 29.340626 493.40625 28.95Q493.29688 28.559376 493.0625 28.309376Q492.82812 28.04375 492.4375 27.91875Q492.0625 27.778126 491.5 27.778126Q490.90625 27.778126 490.42188 27.934376Q489.95312 28.075 489.59375 28.246876Q489.25 28.403126 489.0 28.559376Q488.76562 28.7 488.65625 28.7Q488.57812 28.7 488.51562 28.66875Q488.45312 28.621876 488.40625 28.54375Q488.375 28.465626 488.34375 28.340626Q488.32812 28.215626 488.32812 28.075Q488.32812 27.825 488.35938 27.684376Q488.39062 27.54375 488.51562 27.41875Q488.65625 27.29375 488.98438 27.121876Q489.3125 26.95 489.71875 26.809376Q490.14062 26.66875 490.64062 26.575Q491.14062 26.48125 491.65625 26.48125Q492.59375 26.48125 493.25 26.7Q493.92188 26.903126 494.32812 27.325Q494.75 27.73125 494.92188 28.35625Q495.10938 28.965626 495.10938 29.79375L495.10938 35.715626ZM493.51562 31.7L492.14062 31.7Q491.46875 31.7 490.98438 31.809376Q490.5 31.91875 490.17188 32.153126Q489.85938 32.371876 489.70312 32.684376Q489.54688 32.98125 489.54688 33.3875Q489.54688 34.059376 489.98438 34.465626Q490.42188 34.871876 491.20312 34.871876Q491.82812 34.871876 492.375 34.559376Q492.92188 34.23125 493.51562 33.559376L493.51562 31.7ZM503.0625 35.059376Q503.0625 35.340626 503.01562 35.5125Q502.98438 35.66875 502.90625 35.746876Q502.82812 35.825 502.67188 35.903126Q502.51562 35.965626 502.3125 36.0125Q502.125 36.059376 501.89062 36.090626Q501.67188 36.121876 501.4375 36.121876Q500.76562 36.121876 500.26562 35.934376Q499.78125 35.746876 499.46875 35.3875Q499.15625 35.028126 499.01562 34.465626Q498.875 33.903126 498.875 33.1375L498.875 27.996876L497.64062 27.996876Q497.5 27.996876 497.40625 27.840626Q497.32812 27.684376 497.32812 27.340626Q497.32812 27.153126 497.34375 27.028126Q497.375 26.903126 497.40625 26.825Q497.45312 26.73125 497.51562 26.7Q497.57812 26.66875 497.65625 26.66875L498.875 26.66875L498.875 24.575Q498.875 24.496876 498.90625 24.45Q498.9375 24.3875 499.03125 24.340626Q499.125 24.29375 499.28125 24.278126Q499.4375 24.2625 499.67188 24.2625Q499.92188 24.2625 500.07812 24.278126Q500.23438 24.29375 500.3125 24.340626Q500.40625 24.3875 500.4375 24.45Q500.48438 24.496876 500.48438 24.575L500.48438 26.66875L502.75 26.66875Q502.82812 26.66875 502.875 26.7Q502.9375 26.73125 502.98438 26.825Q503.03125 26.903126 503.04688 27.028126Q503.0625 27.153126 503.0625 27.340626Q503.0625 27.684376 502.96875 27.840626Q502.89062 27.996876 502.75 27.996876L500.48438 27.996876L500.48438 32.903126Q500.48438 33.809376 500.75 34.278126Q501.03125 34.73125 501.71875 34.73125Q501.9375 34.73125 502.10938 34.7Q502.29688 34.653126 502.42188 34.60625Q502.5625 34.559376 502.65625 34.5125Q502.76562 34.465626 502.84375 34.465626Q502.89062 34.465626 502.9375 34.496876Q502.98438 34.5125 503.0 34.590626Q503.03125 34.653126 503.04688 34.778126Q503.0625 34.8875 503.0625 35.059376ZM513.0 30.934376Q513.0 31.309376 512.7969 31.48125Q512.6094 31.6375 512.375 31.6375L506.60938 31.6375Q506.60938 32.371876 506.75 32.965626Q506.90625 33.54375 507.23438 33.965626Q507.57812 34.371876 508.125 34.60625Q508.67188 34.825 509.46875 34.825Q510.09375 34.825 510.57812 34.73125Q511.07812 34.621876 511.42188 34.496876Q511.78125 34.371876 512.0156 34.278126Q512.25 34.16875 512.3594 34.16875Q512.4219 34.16875 512.46875 34.2Q512.53125 34.23125 512.5625 34.309376Q512.59375 34.371876 512.6094 34.496876Q512.625 34.60625 512.625 34.79375Q512.625 34.91875 512.6094 35.0125Q512.6094 35.10625 512.59375 35.184376Q512.5781 35.246876 512.53125 35.309376Q512.5 35.35625 512.4531 35.41875Q512.40625 35.465626 512.1406 35.590626Q511.875 35.715626 511.45312 35.840626Q511.03125 35.95 510.46875 36.04375Q509.92188 36.1375 509.29688 36.1375Q508.21875 36.1375 507.40625 35.840626Q506.59375 35.528126 506.03125 34.934376Q505.46875 34.340626 505.1875 33.45Q504.90625 32.54375 504.90625 31.35625Q504.90625 30.215626 505.20312 29.309376Q505.5 28.403126 506.04688 27.778126Q506.59375 27.153126 507.375 26.825Q508.15625 26.48125 509.125 26.48125Q510.15625 26.48125 510.89062 26.809376Q511.625 27.1375 512.09375 27.7Q512.5625 28.2625 512.78125 29.028126Q513.0 29.778126 513.0 30.6375L513.0 30.934376ZM511.375 30.45Q511.40625 29.184376 510.8125 28.465626Q510.21875 27.73125 509.0625 27.73125Q508.46875 27.73125 508.01562 27.965626Q507.5625 28.184376 507.25 28.559376Q506.95312 28.934376 506.78125 29.434376Q506.625 29.91875 506.60938 30.45L511.375 30.45ZM523.03125 35.7Q523.03125 35.778126 522.9844 35.840626Q522.9531 35.903126 522.875 35.934376Q522.7969 35.965626 522.65625 35.98125Q522.5156 36.0125 522.3281 36.0125Q522.1094 36.0125 521.96875 35.98125Q521.84375 35.965626 521.75 35.934376Q521.6719 35.903126 521.625 35.840626Q521.59375 35.778126 521.59375 35.7L521.59375 34.54375Q520.8906 35.29375 520.1406 35.715626Q519.40625 36.1375 518.5156 36.1375Q517.5469 36.1375 516.8594 35.7625Q516.1719 35.3875 515.75 34.746876Q515.3281 34.10625 515.125 33.246876Q514.9375 32.371876 514.9375 31.41875Q514.9375 30.278126 515.1719 29.371876Q515.4219 28.465626 515.90625 27.825Q516.3906 27.16875 517.09375 26.825Q517.7969 26.48125 518.7344 26.48125Q519.5 26.48125 520.1406 26.825Q520.78125 27.153126 521.40625 27.809376L521.40625 22.7Q521.40625 22.621876 521.4375 22.559376Q521.46875 22.496876 521.5625 22.465626Q521.6719 22.434376 521.8125 22.41875Q521.96875 22.3875 522.2031 22.3875Q522.4531 22.3875 522.6094 22.41875Q522.7656 22.434376 522.84375 22.465626Q522.9375 22.496876 522.9844 22.559376Q523.03125 22.621876 523.03125 22.7L523.03125 35.7ZM521.40625 29.528126Q520.75 28.715626 520.1406 28.29375Q519.53125 27.85625 518.8594 27.85625Q518.25 27.85625 517.8125 28.153126Q517.3906 28.45 517.125 28.934376Q516.8594 29.403126 516.7344 30.0125Q516.6094 30.621876 516.6094 31.246876Q516.6094 31.903126 516.7031 32.54375Q516.8125 33.16875 517.0625 33.66875Q517.3281 34.16875 517.7344 34.465626Q518.15625 34.7625 518.7969 34.7625Q519.125 34.7625 519.4219 34.66875Q519.71875 34.575 520.03125 34.371876Q520.34375 34.16875 520.6719 33.840626Q521.0156 33.5125 521.40625 33.04375L521.40625 29.528126ZM540.125 34.16875Q540.125 34.325 540.1094 34.45Q540.09375 34.559376 540.0625 34.653126Q540.0469 34.73125 540.0 34.809376Q539.96875 34.871876 539.875 34.965626Q539.78125 35.059376 539.46875 35.2625Q539.15625 35.465626 538.6875 35.653126Q538.21875 35.840626 537.6094 35.965626Q537.0156 36.10625 536.3125 36.10625Q535.0781 36.10625 534.0781 35.7Q533.09375 35.278126 532.3906 34.48125Q531.7031 33.684376 531.3281 32.5125Q530.9531 31.325 530.9531 29.79375Q530.9531 28.23125 531.3594 26.996876Q531.7656 25.7625 532.4844 24.91875Q533.21875 24.059376 534.2344 23.60625Q535.2656 23.153126 536.5 23.153126Q537.0469 23.153126 537.5625 23.2625Q538.09375 23.35625 538.53125 23.5125Q538.96875 23.66875 539.3125 23.8875Q539.65625 24.090626 539.78125 24.215626Q539.90625 24.340626 539.9375 24.41875Q539.9844 24.48125 540.0156 24.575Q540.0469 24.66875 540.0469 24.79375Q540.0625 24.91875 540.0625 25.10625Q540.0625 25.29375 540.0469 25.434376Q540.03125 25.575 539.9844 25.66875Q539.9531 25.746876 539.8906 25.79375Q539.84375 25.840626 539.7656 25.840626Q539.625 25.840626 539.375 25.653126Q539.1406 25.465626 538.75 25.23125Q538.375 24.996876 537.8125 24.809376Q537.2656 24.621876 536.5 24.621876Q535.65625 24.621876 534.96875 24.965626Q534.28125 25.29375 533.78125 25.95Q533.2969 26.60625 533.03125 27.54375Q532.7656 28.48125 532.7656 29.7Q532.7656 30.903126 533.0156 31.825Q533.28125 32.746876 533.7656 33.371876Q534.25 33.98125 534.9531 34.309376Q535.65625 34.621876 536.5469 34.621876Q537.2969 34.621876 537.8594 34.434376Q538.4219 34.246876 538.8125 34.028126Q539.2031 33.79375 539.4531 33.60625Q539.71875 33.41875 539.8594 33.41875Q539.9375 33.41875 539.9844 33.45Q540.03125 33.48125 540.0625 33.559376Q540.09375 33.6375 540.1094 33.79375Q540.125 33.934376 540.125 34.16875ZM549.1094 35.715626Q549.1094 35.825 549.03125 35.8875Q548.9531 35.95 548.8125 35.98125Q548.6875 36.0125 548.4219 36.0125Q548.1719 36.0125 548.0156 35.98125Q547.8594 35.95 547.7969 35.8875Q547.7344 35.825 547.7344 35.715626L547.7344 34.840626Q547.15625 35.45 546.4375 35.79375Q545.7344 36.1375 544.9531 36.1375Q544.25 36.1375 543.6875 35.95Q543.125 35.778126 542.7344 35.434376Q542.34375 35.090626 542.125 34.590626Q541.90625 34.090626 541.90625 33.465626Q541.90625 32.715626 542.2031 32.16875Q542.5 31.621876 543.0625 31.2625Q543.6406 30.903126 544.4531 30.73125Q545.28125 30.54375 546.2969 30.54375L547.5156 30.54375L547.5156 29.85625Q547.5156 29.340626 547.40625 28.95Q547.2969 28.559376 547.0625 28.309376Q546.8281 28.04375 546.4375 27.91875Q546.0625 27.778126 545.5 27.778126Q544.90625 27.778126 544.4219 27.934376Q543.9531 28.075 543.59375 28.246876Q543.25 28.403126 543.0 28.559376Q542.7656 28.7 542.65625 28.7Q542.5781 28.7 542.5156 28.66875Q542.4531 28.621876 542.40625 28.54375Q542.375 28.465626 542.34375 28.340626Q542.3281 28.215626 542.3281 28.075Q542.3281 27.825 542.3594 27.684376Q542.3906 27.54375 542.5156 27.41875Q542.65625 27.29375 542.9844 27.121876Q543.3125 26.95 543.71875 26.809376Q544.1406 26.66875 544.6406 26.575Q545.1406 26.48125 545.65625 26.48125Q546.59375 26.48125 547.25 26.7Q547.9219 26.903126 548.3281 27.325Q548.75 27.73125 548.9219 28.35625Q549.1094 28.965626 549.1094 29.79375L549.1094 35.715626ZM547.5156 31.7L546.1406 31.7Q545.46875 31.7 544.9844 31.809376Q544.5 31.91875 544.1719 32.153126Q543.8594 32.371876 543.7031 32.684376Q543.5469 32.98125 543.5469 33.3875Q543.5469 34.059376 543.9844 34.465626Q544.4219 34.871876 545.2031 34.871876Q545.8281 34.871876 546.375 34.559376Q546.9219 34.23125 547.5156 33.559376L547.5156 31.7ZM558.0156 33.309376Q558.0156 33.98125 557.7656 34.5125Q557.5156 35.04375 557.0469 35.403126Q556.59375 35.7625 555.9531 35.95Q555.3281 36.1375 554.5625 36.1375Q554.09375 36.1375 553.6719 36.059376Q553.25 35.996876 552.90625 35.8875Q552.5781 35.7625 552.34375 35.6375Q552.1094 35.5125 552.0 35.41875Q551.8906 35.325 551.84375 35.153126Q551.7969 34.965626 551.7969 34.66875Q551.7969 34.48125 551.8125 34.35625Q551.8281 34.23125 551.8594 34.153126Q551.8906 34.075 551.9375 34.04375Q552.0 34.0125 552.0625 34.0125Q552.1719 34.0125 552.375 34.1375Q552.59375 34.2625 552.8906 34.41875Q553.2031 34.575 553.625 34.715626Q554.0469 34.840626 554.59375 34.840626Q555.0 34.840626 555.3281 34.7625Q555.6719 34.66875 555.90625 34.496876Q556.15625 34.325 556.28125 34.059376Q556.4219 33.79375 556.4219 33.434376Q556.4219 33.075 556.2344 32.825Q556.0469 32.559376 555.7344 32.371876Q555.4219 32.16875 555.03125 32.028126Q554.6406 31.871876 554.21875 31.7Q553.7969 31.528126 553.40625 31.325Q553.0156 31.121876 552.7031 30.825Q552.3906 30.5125 552.1875 30.090626Q552.0 29.66875 552.0 29.090626Q552.0 28.559376 552.2031 28.090626Q552.40625 27.621876 552.7969 27.2625Q553.2031 26.903126 553.7969 26.7Q554.40625 26.48125 555.2031 26.48125Q555.5625 26.48125 555.90625 26.54375Q556.2656 26.590626 556.5469 26.684376Q556.8281 26.7625 557.03125 26.871876Q557.2344 26.98125 557.3281 27.059376Q557.4375 27.1375 557.46875 27.2Q557.5 27.246876 557.5156 27.325Q557.53125 27.3875 557.5469 27.496876Q557.5625 27.60625 557.5625 27.7625Q557.5625 27.934376 557.5469 28.059376Q557.53125 28.16875 557.5 28.246876Q557.46875 28.325 557.4219 28.371876Q557.375 28.403126 557.3125 28.403126Q557.21875 28.403126 557.0469 28.29375Q556.8906 28.184376 556.625 28.059376Q556.3594 27.934376 556.0 27.840626Q555.65625 27.73125 555.1875 27.73125Q554.78125 27.73125 554.46875 27.825Q554.15625 27.91875 553.9531 28.090626Q553.75 28.246876 553.6406 28.48125Q553.5469 28.715626 553.5469 28.996876Q553.5469 29.371876 553.7344 29.6375Q553.9375 29.8875 554.25 30.090626Q554.5625 30.278126 554.9531 30.434376Q555.3594 30.590626 555.78125 30.7625Q556.2031 30.934376 556.59375 31.1375Q557.0 31.340626 557.3125 31.6375Q557.625 31.91875 557.8125 32.340626Q558.0156 32.746876 558.0156 33.309376ZM568.0625 35.7Q568.0625 35.778126 568.0156 35.840626Q567.9844 35.8875 567.8906 35.934376Q567.8125 35.965626 567.65625 35.98125Q567.5 36.0125 567.2656 36.0125Q567.0156 36.0125 566.8594 35.98125Q566.7031 35.965626 566.6094 35.934376Q566.53125 35.8875 566.4844 35.840626Q566.4531 35.778126 566.4531 35.7L566.4531 30.559376Q566.4531 29.809376 566.3281 29.35625Q566.21875 28.8875 565.9844 28.559376Q565.7656 28.23125 565.40625 28.059376Q565.0625 27.871876 564.59375 27.871876Q563.9844 27.871876 563.375 28.309376Q562.7656 28.73125 562.1094 29.559376L562.1094 35.7Q562.1094 35.778126 562.0625 35.840626Q562.03125 35.8875 561.9375 35.934376Q561.8594 35.965626 561.7031 35.98125Q561.5469 36.0125 561.2969 36.0125Q561.0625 36.0125 560.90625 35.98125Q560.75 35.965626 560.65625 35.934376Q560.5625 35.8875 560.53125 35.840626Q560.5 35.778126 560.5 35.7L560.5 22.653126Q560.5 22.575 560.53125 22.528126Q560.5625 22.465626 560.65625 22.434376Q560.75 22.3875 560.90625 22.371876Q561.0625 22.340626 561.2969 22.340626Q561.5469 22.340626 561.7031 22.371876Q561.8594 22.3875 561.9375 22.434376Q562.03125 22.465626 562.0625 22.528126Q562.1094 22.575 562.1094 22.653126L562.1094 27.91875Q562.7969 27.184376 563.5 26.840626Q564.2031 26.48125 564.9219 26.48125Q565.7969 26.48125 566.3906 26.778126Q567.0 27.075 567.3594 27.575Q567.7344 28.075 567.8906 28.746876Q568.0625 29.403126 568.0625 30.35625L568.0625 35.7ZM583.3281 24.028126Q583.3281 24.215626 583.2969 24.35625Q583.28125 24.496876 583.2344 24.575Q583.1875 24.653126 583.125 24.7Q583.0625 24.73125 582.9844 24.73125L578.3594 24.73125L578.3594 29.028126L582.7344 29.028126Q582.7969 29.028126 582.8594 29.075Q582.9375 29.10625 582.9844 29.184376Q583.03125 29.2625 583.0469 29.403126Q583.0625 29.528126 583.0625 29.73125Q583.0625 29.91875 583.0469 30.059376Q583.03125 30.184376 582.9844 30.2625Q582.9375 30.340626 582.8594 30.3875Q582.7969 30.434376 582.7344 30.434376L578.3594 30.434376L578.3594 35.7Q578.3594 35.7625 578.3125 35.825Q578.28125 35.8875 578.1875 35.934376Q578.09375 35.965626 577.9375 35.98125Q577.78125 36.0125 577.5156 36.0125Q577.28125 36.0125 577.1094 35.98125Q576.9531 35.965626 576.8594 35.934376Q576.7656 35.8875 576.71875 35.825Q576.6875 35.7625 576.6875 35.7L576.6875 23.996876Q576.6875 23.621876 576.875 23.465626Q577.0781 23.309376 577.3125 23.309376L582.9844 23.309376Q583.0625 23.309376 583.125 23.35625Q583.1875 23.3875 583.2344 23.48125Q583.28125 23.559376 583.2969 23.715626Q583.3281 23.85625 583.3281 24.028126ZM587.1094 35.7Q587.1094 35.778126 587.0625 35.840626Q587.03125 35.8875 586.9375 35.934376Q586.8594 35.965626 586.7031 35.98125Q586.5469 36.0125 586.2969 36.0125Q586.0625 36.0125 585.90625 35.98125Q585.75 35.965626 585.65625 35.934376Q585.5625 35.8875 585.53125 35.840626Q585.5 35.778126 585.5 35.7L585.5 22.653126Q585.5 22.575 585.53125 22.528126Q585.5625 22.465626 585.65625 22.434376Q585.75 22.3875 585.90625 22.371876Q586.0625 22.340626 586.2969 22.340626Q586.5469 22.340626 586.7031 22.371876Q586.8594 22.3875 586.9375 22.434376Q587.03125 22.465626 587.0625 22.528126Q587.1094 22.575 587.1094 22.653126L587.1094 35.7ZM598.6719 31.215626Q598.6719 32.29375 598.3906 33.2Q598.1094 34.090626 597.5469 34.746876Q596.9844 35.403126 596.1406 35.778126Q595.2969 36.1375 594.1719 36.1375Q593.09375 36.1375 592.28125 35.825Q591.4844 35.496876 590.9375 34.8875Q590.40625 34.2625 590.1406 33.3875Q589.875 32.496876 589.875 31.3875Q589.875 30.309376 590.15625 29.41875Q590.4375 28.5125 591.0 27.85625Q591.5625 27.2 592.3906 26.840626Q593.2344 26.48125 594.3594 26.48125Q595.4531 26.48125 596.25 26.809376Q597.0625 27.121876 597.59375 27.746876Q598.125 28.35625 598.3906 29.23125Q598.6719 30.10625 598.6719 31.215626ZM596.96875 31.325Q596.96875 30.60625 596.8281 29.98125Q596.7031 29.340626 596.3906 28.871876Q596.09375 28.3875 595.5781 28.10625Q595.0625 27.825 594.2969 27.825Q593.5781 27.825 593.0625 28.075Q592.5625 28.325 592.21875 28.79375Q591.8906 29.2625 591.71875 29.903126Q591.5625 30.528126 591.5625 31.278126Q591.5625 31.996876 591.6875 32.6375Q591.8281 33.278126 592.1406 33.746876Q592.4531 34.215626 592.96875 34.496876Q593.4844 34.778126 594.25 34.778126Q594.9531 34.778126 595.46875 34.528126Q596.0 34.2625 596.3281 33.809376Q596.65625 33.35625 596.8125 32.715626Q596.96875 32.075 596.96875 31.325ZM613.7969 26.903126Q613.7969 26.965626 613.7656 27.059376Q613.75 27.153126 613.7031 27.309376L611.1094 35.653126Q611.0781 35.7625 611.0156 35.840626Q610.9531 35.903126 610.84375 35.95Q610.7344 35.98125 610.53125 35.996876Q610.34375 36.0125 610.0469 36.0125Q609.75 36.0125 609.5469 35.98125Q609.34375 35.965626 609.21875 35.934376Q609.09375 35.8875 609.03125 35.825Q608.96875 35.746876 608.9531 35.653126L607.09375 29.278126L607.0781 29.184376L607.0625 29.278126L605.3594 35.653126Q605.3281 35.7625 605.2656 35.840626Q605.2031 35.903126 605.0625 35.95Q604.9375 35.98125 604.7344 35.996876Q604.5469 36.0125 604.25 36.0125Q603.9531 36.0125 603.75 35.98125Q603.5625 35.965626 603.4375 35.934376Q603.3281 35.8875 603.2656 35.825Q603.2031 35.746876 603.1719 35.653126L600.6094 27.309376Q600.5625 27.153126 600.53125 27.059376Q600.5156 26.965626 600.5156 26.903126Q600.5156 26.809376 600.5469 26.7625Q600.59375 26.7 600.6875 26.66875Q600.78125 26.6375 600.9375 26.621876Q601.09375 26.60625 601.3125 26.60625Q601.59375 26.60625 601.75 26.621876Q601.9219 26.6375 602.0 26.684376Q602.09375 26.715626 602.125 26.778126Q602.1719 26.840626 602.2031 26.91875L604.3281 34.16875L604.34375 34.2625L604.3594 34.16875L606.3125 26.91875Q606.3281 26.840626 606.375 26.778126Q606.4219 26.715626 606.5 26.684376Q606.59375 26.6375 606.7344 26.621876Q606.8906 26.60625 607.1406 26.60625Q607.375 26.60625 607.5156 26.621876Q607.6719 26.6375 607.7656 26.684376Q607.8594 26.715626 607.8906 26.778126Q607.9375 26.825 607.9531 26.903126L610.0469 34.16875L610.0625 34.2625L610.0781 34.16875L612.1719 26.91875Q612.1875 26.840626 612.2344 26.778126Q612.28125 26.715626 612.375 26.684376Q612.46875 26.6375 612.625 26.621876Q612.78125 26.60625 613.03125 26.60625Q613.2656 26.60625 613.40625 26.621876Q613.5625 26.6375 613.6406 26.684376Q613.71875 26.715626 613.75 26.7625Q613.7969 26.809376 613.7969 26.903126Z" fill-rule="nonzero"/></svg>